#N canvas 79 229 1735 706 10;
#X declare -path library;
#X obj 536 1033 euclidean-generator bd;
#X obj 686 1033 euclidean-generator hh;
#X obj 828 1033 euclidean-generator sn;
#X obj 391 510 tgl 43 0 isPlaying set-isPlaying Start/Stop 17 7 0 10
-262144 -1 -1 0 1;
#X obj 534 1533 output~;
#X obj 828 1381 snare-drum02-02-2018~;
#X obj 683 1382 high-hat02-02-2018~;
#X obj 679 1531 output~;
#X obj 848 1531 output~;
#X obj 686 1125 decide;
#X obj 533 1383 kick06-06-2018~;
#X obj 526 1312 r bd-softness;
#X obj 536 1332 r bd-dirt;
#X obj 546 1352 r bd-size;
#N canvas 245 53 1454 762 drum-timbre-modulations 0;
#X obj 73 -44 random-ramp 50 150;
#X obj 73 -113 r randomize;
#X obj 96 -81 r beats-until-change;
#X obj 105 -19 r randomize;
#X obj 128 13 r beats-until-change;
#X obj 132 73 r randomize;
#X obj 155 105 r beats-until-change;
#X obj 105 50 random-ramp 22 150;
#X msg 72 280 \; bd-softness \$1;
#X msg 98 225 \; bd-dirt \$1;
#X msg 130 467 \; bd-size \$1;
#X obj 352 -113 r randomize;
#X obj 375 -81 r beats-until-change;
#X obj 384 -19 r randomize;
#X obj 407 13 r beats-until-change;
#X obj 411 73 r randomize;
#X obj 434 105 r beats-until-change;
#X obj 352 -44 random-ramp 14 150;
#X obj 384 50 random-ramp 34 150;
#X obj 411 142 random-ramp 22 150;
#X msg 407 173 \; hh-size \$1;
#X msg 375 224 \; hh-dirt \$1;
#X msg 349 279 \; hh-softness \$1;
#X obj 17 57 t b f;
#X obj 15 172 line;
#X obj 17 79 decide;
#X obj 21 199 +;
#X obj 17 102 metro 100;
#X obj 17 146 pack f 100;
#X obj 17 124 random 6;
#X obj 301 42 t b f;
#X obj 299 157 line;
#X obj 301 64 decide;
#X obj 305 184 +;
#X obj 301 87 metro 100;
#X obj 301 131 pack f 100;
#X obj 301 109 random 6;
#X obj 184 234 t b f;
#X obj 182 349 line;
#X obj 184 256 decide;
#X obj 188 376 +;
#X obj 184 279 metro 100;
#X obj 184 323 pack f 100;
#X obj 1246 -94 r randomize;
#X obj 1269 -62 r beats-until-change;
#X obj 1278 0 r randomize;
#X obj 1301 32 r beats-until-change;
#X obj 1278 69 random-ramp 34 150;
#X obj 566 -94 r randomize;
#X obj 589 -62 r beats-until-change;
#X obj 598 0 r randomize;
#X obj 621 32 r beats-until-change;
#X obj 625 92 r randomize;
#X obj 648 124 r beats-until-change;
#X obj 566 -25 random-ramp 14 150;
#X obj 598 69 random-ramp 34 150;
#X obj 625 161 random-ramp 44 150;
#X obj 697 240 blur-control-stream 100 50 100;
#X obj 697 262 s sn-size;
#X obj 647 348 blur-control-stream 100 20 100;
#X obj 647 370 s sn-dirt;
#X obj 564 411 blur-control-stream 100 6 100;
#X obj 559 303 blur-control-stream 300 6 100;
#X obj 1307 270 s bz-index;
#X obj 1337 158 blur-control-stream 100 6 100;
#X obj 1337 180 s bz-center;
#X obj 906 -94 r randomize;
#X obj 929 -62 r beats-until-change;
#X obj 938 0 r randomize;
#X obj 961 32 r beats-until-change;
#X obj 965 92 r randomize;
#X obj 988 124 r beats-until-change;
#X obj 906 -25 random-ramp 14 150;
#X obj 938 69 random-ramp 34 150;
#X obj 965 161 random-ramp 44 150;
#X obj 1036 240 blur-control-stream 100 50 100;
#X obj 899 303 blur-control-stream 300 6 100;
#X obj 1037 262 s rd-size;
#X obj 987 370 s rd-dirt;
#X obj 956 469 s rd-softness;
#X obj 567 490 s sn-softness;
#X obj 987 348 blur-control-stream 100 6 100;
#X obj 564 433 / 24;
#X obj 957 438 blur-control-stream 100 6 600;
#X obj 132 142 random-ramp 127 150;
#X obj 184 301 random 24;
#X obj 188 398 + 20;
#X obj 1249 113 blur-control-stream 300 12 100;
#X obj 1307 248 blur-control-stream 150 10 100;
#X obj 1246 -25 random-ramp 100 150;
#X connect 0 0 23 0;
#X connect 1 0 0 0;
#X connect 2 0 0 1;
#X connect 3 0 7 0;
#X connect 4 0 7 1;
#X connect 5 0 84 0;
#X connect 6 0 84 1;
#X connect 7 0 9 0;
#X connect 11 0 17 0;
#X connect 12 0 17 1;
#X connect 13 0 18 0;
#X connect 14 0 18 1;
#X connect 15 0 19 0;
#X connect 16 0 19 1;
#X connect 17 0 30 0;
#X connect 18 0 21 0;
#X connect 19 0 20 0;
#X connect 23 0 25 0;
#X connect 23 1 26 1;
#X connect 24 0 26 0;
#X connect 25 0 27 0;
#X connect 26 0 8 0;
#X connect 27 0 29 0;
#X connect 28 0 24 0;
#X connect 29 0 28 0;
#X connect 30 0 32 0;
#X connect 30 1 33 1;
#X connect 31 0 33 0;
#X connect 32 0 34 0;
#X connect 33 0 22 0;
#X connect 34 0 36 0;
#X connect 35 0 31 0;
#X connect 36 0 35 0;
#X connect 37 0 39 0;
#X connect 37 1 40 1;
#X connect 38 0 40 0;
#X connect 39 0 41 0;
#X connect 40 0 86 0;
#X connect 41 0 85 0;
#X connect 42 0 38 0;
#X connect 43 0 89 0;
#X connect 44 0 89 1;
#X connect 45 0 47 0;
#X connect 46 0 47 1;
#X connect 47 0 64 0;
#X connect 48 0 54 0;
#X connect 49 0 54 1;
#X connect 50 0 55 0;
#X connect 51 0 55 1;
#X connect 52 0 56 0;
#X connect 53 0 56 1;
#X connect 54 0 62 0;
#X connect 55 0 59 0;
#X connect 56 0 57 0;
#X connect 57 0 58 0;
#X connect 59 0 60 0;
#X connect 61 0 82 0;
#X connect 62 0 61 0;
#X connect 64 0 65 0;
#X connect 66 0 72 0;
#X connect 67 0 72 1;
#X connect 68 0 73 0;
#X connect 69 0 73 1;
#X connect 70 0 74 0;
#X connect 71 0 74 1;
#X connect 72 0 76 0;
#X connect 73 0 81 0;
#X connect 74 0 75 0;
#X connect 75 0 77 0;
#X connect 76 0 83 0;
#X connect 81 0 78 0;
#X connect 82 0 80 0;
#X connect 83 0 79 0;
#X connect 84 0 37 0;
#X connect 85 0 42 0;
#X connect 86 0 10 0;
#X connect 87 0 88 0;
#X connect 88 0 63 0;
#X connect 89 0 87 0;
#X restore 389 798 pd drum-timbre-modulations;
#X obj 682 1310 r hh-softness;
#X obj 692 1330 r hh-dirt;
#X obj 702 1350 r hh-size;
#X obj 846 1308 r sn-softness;
#X obj 856 1328 r sn-dirt;
#X obj 866 1348 r sn-size;
#X obj 747 665 s randomize;
#X obj 594 579 bng 43 250 50 0 empty empty empty 17 7 0 10 -262144
-1 -1;
#X obj 747 578 bng 43 250 50 0 empty empty empty 17 7 0 10 -262144
-1 -1;
#X obj 506 702 s fibonacci-beat;
#X obj 747 507 r fibonacci-beat;
#X obj 505 510 r isPlaying;
#X obj 594 507 r restart-fibonacci-beat;
#X obj 693 927 r count;
#X obj 1677 1015 euclidean-generator bz1;
#X obj 1775 1742 fm-spectral-bass06-07-2018~;
#X obj 1775 1913 output~;
#X obj 1835 1073 select 1;
#X obj 1859 1038 decide;
#X obj 1827 1299 r bz-index;
#X obj 1927 1004 r count;
#X obj 1927 1026 euclidean-generator bz1-c1;
#X obj 1906 1228 r randomize;
#X obj 1812 1321 +;
#X obj 1933 1467 r randomize;
#X obj 1932 1489 random 12;
#X obj 1838 1565 +;
#X obj 1853 1542 r bz-center;
#X obj 2765 901 r count;
#X obj 2358 1265 fm-spectral-lead06-07-2018~;
#X obj 2358 1438 output~;
#X obj 2676 1261 fm-spectral-lead06-07-2018~;
#X obj 2676 1432 output~;
#X obj 2697 962 gate;
#X obj 2697 940 decide;
#X obj 2945 1259 fm-spectral-lead06-07-2018~;
#X obj 2946 1432 output~;
#X obj 1812 1272 control-oscillator 1 1 0;
#X obj 1838 1512 control-oscillator 1 1 0;
#N canvas 292 386 1529 544 euclid-rhythm-randomization 0;
#X obj 145 192 randomize-euclid-generator bd 16;
#X obj 175 212 randomize-euclid-generator hh 16;
#X obj 195 232 randomize-euclid-generator sn 16;
#X obj 215 252 randomize-euclid-generator bz1 16;
#X obj 192 61 r randomize;
#X obj 555 162 randomize-euclid-generator bz1-c1 16;
#X obj 539 54 r randomize;
#X obj 235 272 randomize-euclid-generator rd 16 32;
#X connect 4 0 0 0;
#X connect 4 0 3 0;
#X connect 4 0 2 0;
#X connect 4 0 1 0;
#X connect 4 0 7 0;
#X connect 6 0 5 0;
#X restore 389 773 pd euclid-rhythm-randomization;
#X obj 1923 1298 r randomize;
#X obj 1923 1320 random 12;
#X obj 1872 1414 +;
#X obj 1887 1393 r bz-envelope;
#X obj 997 1531 output~;
#X obj 973 1308 r rd-softness;
#X obj 983 1328 r rd-dirt;
#X obj 993 1348 r rd-size;
#X obj 980 1379 ride06-06-2018~;
#X obj 979 1034 euclidean-generator rd;
#X obj 1923 1342 + 3;
#X obj 2998 1231 random-ramp 40 1200;
#X obj 2729 1236 random-ramp 40 1200;
#X obj 2410 1237 random-ramp 40 1200;
#X obj 2616 1163 random-ramp 40 1200;
#X obj 1313 1732 output~;
#X obj 1324 1184 bng 43 250 50 0 empty empty empty 17 7 0 10 -262144
-1 -1;
#X obj 1324 1270 fibonacci-beat-generator;
#X obj 1313 1020 euclidean-generator bell1;
#X obj 1354 922 r count;
#X obj 1384 1108 r randomize;
#X obj 853 507 r count;
#X obj 853 628 s reset;
#X obj 853 554 sel 0;
#X obj 1326 1153 r reset;
#X obj 853 576 bng 45 250 50 0 empty empty empty 17 7 0 10 -262144
-1 -1;
#X obj 647 701 s beats-until-change;
#X obj 506 668 fibonacci-beat-generator;
#X obj 2409 1015 euclidean-generator lead1;
#X obj 2640 1016 euclidean-generator lead2;
#X obj 2909 1014 euclidean-generator lead3;
#X obj 1384 1130 decide;
#X obj 1384 1152 sel 1;
#X floatatom 1563 604 0 0 100 0 - - -;
#X obj 1516 713 output~;
#N canvas 43 53 958 610 reverb 0;
#X obj 13 19 inlet~;
#X obj 13 43 reverb-echo echo-del1 5.43216;
#X obj 277 215 +~;
#X obj 319 215 +~;
#X obj 67 276 outlet~;
#X obj 137 276 outlet~;
#X obj 238 334 +~;
#X obj 347 335 +~;
#X obj 280 334 -~;
#X obj 387 334 -~;
#X obj 237 390 +~;
#X obj 281 391 +~;
#X obj 325 392 -~;
#X obj 364 392 -~;
#X obj 324 474 *~ 0;
#X obj 282 473 *~ 0;
#X obj 237 472 *~ 0;
#X obj 365 475 *~ 0;
#X obj 632 365 inlet;
#X obj 632 437 / 200;
#X obj 632 389 min 100;
#X obj 632 412 max 0;
#X obj 238 583 delwrite~ loop-del1 60;
#X obj 283 561 delwrite~ loop-del2 71.9345;
#X obj 364 515 delwrite~ loop-del4 95.945;
#X obj 298 154 delread~ loop-del1 60;
#X obj 340 179 delread~ loop-del2 71.9345;
#X obj 408 233 delread~ loop-del4 95.945;
#X obj 386 208 delread~ loop-del3 86.7545;
#X obj 325 538 delwrite~ loop-del3 86.7545;
#X obj 13 67 reverb-echo echo-del2 8.45346;
#X obj 13 91 reverb-echo echo-del3 13.4367;
#X obj 13 115 reverb-echo echo-del4 21.5463;
#X obj 13 139 reverb-echo echo-del5 34.3876;
#X obj 13 163 reverb-echo echo-del6 55.5437;
#X text 286 42 "early echo" generators \, which also increase echo
density. Open one to see what they do.;
#X text 300 115 Get the outputs of the recirculating delays. Add the
inputs to two of them.;
#X text 420 313 Do a power-conserving mix of them in pairs. First combine
(1 \, 2) and (3 \, 4)...;
#X text 402 385 ...then (1 \, 3) and (2 \, 4);
#X text 446 469 The two mixing stages have a combined gain of 2 \,
so the recirculation gain is limited to 0.5.;
#X text 586 542 Put the signals back into the;
#X text 584 557 recirculating delays.;
#X text 29 296 Tap outputs from here.;
#X text 708 381 0 to 100 to control reverb;
#X text 719 396 time.;
#X text 691 364 feedback gain on a scale of;
#X connect 1 0 30 0;
#X connect 1 1 30 1;
#X connect 2 0 4 0;
#X connect 2 0 6 0;
#X connect 2 0 8 0;
#X connect 3 0 5 0;
#X connect 3 0 6 1;
#X connect 3 0 8 1;
#X connect 6 0 10 0;
#X connect 6 0 12 0;
#X connect 7 0 12 1;
#X connect 7 0 10 1;
#X connect 8 0 11 0;
#X connect 8 0 13 0;
#X connect 9 0 11 1;
#X connect 9 0 13 1;
#X connect 10 0 16 0;
#X connect 11 0 15 0;
#X connect 12 0 14 0;
#X connect 13 0 17 0;
#X connect 14 0 29 0;
#X connect 15 0 23 0;
#X connect 16 0 22 0;
#X connect 17 0 24 0;
#X connect 18 0 20 0;
#X connect 19 0 17 1;
#X connect 19 0 16 1;
#X connect 19 0 15 1;
#X connect 19 0 14 1;
#X connect 20 0 21 0;
#X connect 21 0 19 0;
#X connect 25 0 2 1;
#X connect 26 0 3 1;
#X connect 27 0 7 1;
#X connect 27 0 9 1;
#X connect 28 0 7 0;
#X connect 28 0 9 0;
#X connect 30 0 31 0;
#X connect 30 1 31 1;
#X connect 31 0 32 0;
#X connect 31 1 32 1;
#X connect 32 0 33 0;
#X connect 32 1 33 1;
#X connect 33 0 34 0;
#X connect 33 1 34 1;
#X connect 34 0 2 0;
#X connect 34 1 3 0;
#X restore 1504 682 pd reverb;
#X floatatom 1150 609 0 0 120 0 - - -;
#X text 1191 609 level \, dB;
#X floatatom 1194 633 0 0 100 0 - - -;
#X text 1235 633 liveness \, 0-100;
#X floatatom 1238 659 0 0 120 0 - - -;
#X floatatom 1282 683 0 0 120 0 - - -;
#X text 1269 659 crossover frequency \, Hz.;
#X text 1315 684 HF damping \, percent;
#X obj 1083 714 rev2~ 100 90 3000 20;
#X obj 1083 749 output~;
#X obj 1661 615 loadbang;
#X obj 1661 637 i 27;
#X obj 1257 543 loadbang;
#X obj 1246 594 i 40;
#X obj 1300 582 i 82;
#X obj 1336 631 i 82;
#X obj 2494 1163 random-ramp 24 1200;
#X obj 1148 588 i 96;
#X obj 527 991 gate;
#X obj 613 990 gate;
#X obj 820 1004 gate;
#X obj 1313 986 gate;
#X obj 1901 1571 r randomize;
#X obj 1901 1594 random-ramp 14 2400;
#X obj 1901 1643 *;
#X obj 1919 1446 abs;
#X obj 1901 1616 / 14;
#X obj 1872 1365 control-oscillator 3 127 0;
#X obj 1963 1617 r randomize;
#X obj 1963 1650 random-ramp 14 2400;
#X obj 1963 1672 / 14;
#X obj 1963 1694 * 100;
#X obj 1963 1717 + 20;
#X obj 1872 1464 / 10;
#X floatatom 590 1578 5 0 0 0 - - -, f 5;
#X floatatom 736 1575 5 0 0 0 - - -, f 5;
#X floatatom 903 1574 5 0 0 0 - - -, f 5;
#X floatatom 1053 1572 5 0 0 0 - - -, f 5;
#X floatatom 1572 759 5 0 0 0 - - -, f 5;
#X floatatom 2415 1483 5 0 0 0 - - -, f 5;
#X floatatom 2730 1476 5 0 0 0 - - -, f 5;
#X floatatom 3001 1477 5 0 0 0 - - -, f 5;
#X floatatom 1831 1956 5 0 0 0 - - -, f 5;
#X floatatom 1153 794 5 0 0 0 - - -, f 5;
#X floatatom 1368 1777 5 0 0 0 - - -, f 5;
#X msg 2939 1522 \; lead1-level 0.092 \; lead2-level 0.074 \; lead3-level
0.092;
#X obj 2480 1432 r lead1-level;
#X obj 2780 1432 r lead2-level;
#X obj 3050 1432 r lead3-level;
#X obj 2938 1499 loadbang;
#X obj 1460 1448 loadbang;
#X obj 1403 1708 r spiral-lead-level;
#X obj 1205 743 r verb2-level;
#X obj 1205 769 loadbang;
#X msg 1206 792 \; verb2-level 0.068;
#X obj 1148 1492 loadbang;
#X obj 581 1500 r bd-level;
#X obj 738 1495 r hh-level;
#X obj 896 1498 r sn-level;
#X obj 1046 1498 r ride-level;
#X obj 1582 681 r verb-level;
#X obj 686 1151 sel 0 1;
#X obj 2010 1856 loadbang;
#X msg 2011 1879 \; bass-level 0.512;
#X obj 1890 1919 r bass-level;
#X obj 2780 1552 throw~ reverb-send2;
#X obj 1083 681 catch~ reverb-send2;
#X obj 1343 1814 throw~ reverb-send2;
#X msg 1148 1515 \; bd-level 0.441 \; hh-level 0.328 \; sn-level 0.148
\; ride-level 0.086 \; verb-level 0.021;
#X obj 772 1648 throw~ reverb-send1;
#X obj 1313 1541 fm-spectral-lead206-07-2018~;
#X msg 1473 1494 100;
#X msg 1440 1486 2;
#X obj 1394 1417 random-ramp 40 600;
#X obj 1368 1387 random-ramp 80 600;
#X obj 655 1648 dac~ 3 4 5 6;
#X obj 2710 1555 dac~ 7 8;
#X obj 1277 1815 dac~ 9 10;
#X obj 1731 1983 dac~ 11 12;
#X obj 1069 797 dac~ 13 14;
#X obj 1505 793 dac~ 13 14;
#N canvas 710 340 450 300 clock 0;
#X obj 76 104 counter;
#X obj 76 -19 r isPlaying;
#X obj 76 129 s count;
#X obj 76 56 counter;
#X obj 162 4 loadbang;
#X obj 162 48 / 4;
#X obj 197 -148 r randomize;
#X obj 197 -30 t b f;
#X obj 197 -52 + 1;
#X obj 197 -126 random 2;
#X obj 197 -82 / 2;
#X obj 197 -104 * 3;
#X obj 162 26 i 4;
#X obj 76 4 metro 150;
#X obj 104 32 r reset;
#X obj 76 80 calculate-euclidean-beat 2 4 0;
#X connect 0 0 2 0;
#X connect 1 0 13 0;
#X connect 3 0 15 0;
#X connect 4 0 12 0;
#X connect 5 0 15 1;
#X connect 6 0 9 0;
#X connect 7 0 12 0;
#X connect 7 1 5 1;
#X connect 8 0 7 0;
#X connect 9 0 11 0;
#X connect 10 0 8 0;
#X connect 11 0 10 0;
#X connect 12 0 5 0;
#X connect 13 0 3 0;
#X connect 14 0 3 2;
#X connect 15 0 0 0;
#X restore 389 724 pd clock;
#X obj 594 627 i 1;
#X obj 1502 658 catch~ reverb-send1;
#X obj 1324 1239 i 1;
#X obj 536 1242 makenote 100 150;
#X obj 536 1264 pack 0 0 10;
#X obj 545 1289 noteout;
#X obj 536 1212 i 36;
#X obj 686 1241 makenote 100 150;
#X obj 686 1263 pack 0 0 10;
#X obj 695 1288 noteout;
#X obj 686 1211 i 44;
#X obj 720 1211 i 46;
#X obj 828 1239 makenote 100 150;
#X obj 828 1261 pack 0 0 10;
#X obj 837 1286 noteout;
#X obj 828 1209 i 37;
#X obj 980 1237 makenote 100 150;
#X obj 980 1259 pack 0 0 10;
#X obj 989 1284 noteout;
#X obj 980 1210 i 48;
#N canvas 0 27 1920 982 choose-chord 0;
#X obj 462 277 r bass-note;
#X obj 451 304 +;
#X obj 331 544 pack;
#X obj 331 478 % 12;
#X obj 330 450 * 7;
#X obj 330 423 % 7;
#X obj 330 522 makenote 100 2400;
#X obj 331 500 + 48;
#X obj 649 400 +;
#X obj 650 543 pack;
#X obj 650 477 % 12;
#X obj 649 449 * 7;
#X obj 649 422 % 7;
#X obj 649 521 makenote 100 2400;
#X obj 622 274 i 3;
#X obj 650 498 + 60;
#X obj 917 395 +;
#X obj 919 541 pack;
#X obj 919 475 % 12;
#X obj 918 447 * 7;
#X obj 918 420 % 7;
#X obj 918 519 makenote 100 2400;
#X obj 919 496 + 60;
#X obj 891 272 i 9;
#X obj 379 266 i 1;
#X obj 417 208 random 3;
#X obj 492 182 r randomize;
#X obj 492 204 random 7;
#X obj 417 230 - 1;
#X obj 417 252 +;
#X obj 492 226 * 5;
#X obj 560 612 noteout;
#X obj 562 587 pack 0 0 2;
#X obj 417 180 r randomize;
#X obj 883 73 inlet;
#X obj 620 75 inlet;
#X obj 378 74 inlet;
#X obj 331 566 outlet;
#X obj 650 565 outlet;
#X obj 919 563 outlet;
#X connect 0 0 1 1;
#X connect 1 0 5 0;
#X connect 1 0 8 1;
#X connect 1 0 16 1;
#X connect 2 0 32 0;
#X connect 2 0 37 0;
#X connect 3 0 7 0;
#X connect 4 0 3 0;
#X connect 5 0 4 0;
#X connect 6 0 2 0;
#X connect 6 1 2 1;
#X connect 7 0 6 0;
#X connect 8 0 12 0;
#X connect 9 0 32 0;
#X connect 9 0 38 0;
#X connect 10 0 15 0;
#X connect 11 0 10 0;
#X connect 12 0 11 0;
#X connect 13 0 9 0;
#X connect 13 1 9 1;
#X connect 14 0 8 0;
#X connect 15 0 13 0;
#X connect 16 0 20 0;
#X connect 17 0 32 0;
#X connect 17 0 39 0;
#X connect 18 0 22 0;
#X connect 19 0 18 0;
#X connect 20 0 19 0;
#X connect 21 0 17 0;
#X connect 21 1 17 1;
#X connect 22 0 21 0;
#X connect 23 0 16 0;
#X connect 24 0 1 0;
#X connect 25 0 28 0;
#X connect 26 0 27 0;
#X connect 27 0 30 0;
#X connect 28 0 29 0;
#X connect 29 0 24 1;
#X connect 30 0 29 1;
#X connect 32 0 31 0;
#X connect 33 0 25 0;
#X connect 34 0 23 0;
#X connect 35 0 14 0;
#X connect 36 0 24 0;
#X restore 2742 1162 pd choose-chord;
#N canvas 720 19 954 797 choose-bass-note 0;
#X obj 58 -758 t b b;
#X obj 246 23 pack;
#X obj 245 1 makenote 100 100;
#X obj 246 -173 % 12;
#X obj 245 -201 * 7;
#X obj 202 -597 + 8;
#X obj 217 -663 r randomize;
#X obj 217 -641 random 12;
#X obj 202 -692 random 4;
#X obj 247 -742 r randomize;
#X obj 245 -228 % 7;
#X obj 217 -619 * 5;
#X obj 151 -516 r randomize;
#X obj 151 -493 random 12;
#X obj 157 -373 abs;
#X obj 247 -713 random 32;
#X obj 157 -397 +;
#X obj 157 -256 +;
#X obj 157 -221 s bass-note;
#X obj 197 -436 decide;
#X obj 197 -414 gate;
#X obj 57 -470 control-oscillator 1 1 0;
#X obj 104 -573 control-oscillator 1 32 0;
#X obj 82 -348 r randomize;
#X obj 153 -291 +;
#X obj 82 -326 random 7;
#X obj 196 -311 r spiral-note;
#X obj 246 -151 + 24;
#X obj 166 89 noteout;
#X obj 168 64 pack 0 0 1;
#X obj 246 45 outlet;
#X obj 57 -786 inlet;
#X obj 259 -520 r randomize;
#X obj 259 -473 blur-control-stream 300 60 100;
#X obj 259 -497 random-ramp 14 2400;
#X obj 345 -137 abs;
#X obj 392 -184 + 8;
#X obj 392 -209 random 4;
#X obj 505 -234 + 8;
#X obj 505 -258 random 4;
#X obj 345 -112 + 150;
#X obj 345 -161 control-oscillator 1 1 0;
#X obj 454 -209 control-oscillator 8 300 0;
#X obj 508 -469 inlet;
#X connect 0 0 21 0;
#X connect 0 0 22 0;
#X connect 0 1 8 0;
#X connect 0 1 42 0;
#X connect 0 1 37 0;
#X connect 0 1 20 0;
#X connect 1 0 29 0;
#X connect 1 0 30 0;
#X connect 2 0 1 0;
#X connect 2 1 1 1;
#X connect 3 0 27 0;
#X connect 4 0 3 0;
#X connect 5 0 22 2;
#X connect 6 0 7 0;
#X connect 7 0 11 0;
#X connect 8 0 5 0;
#X connect 9 0 15 0;
#X connect 10 0 4 0;
#X connect 11 0 5 1;
#X connect 12 0 13 0;
#X connect 12 0 19 0;
#X connect 13 0 21 2;
#X connect 14 0 24 0;
#X connect 15 0 8 1;
#X connect 16 0 14 0;
#X connect 17 0 10 0;
#X connect 17 0 18 0;
#X connect 19 0 20 0;
#X connect 20 0 16 1;
#X connect 21 0 16 0;
#X connect 22 0 21 1;
#X connect 23 0 25 0;
#X connect 24 0 17 0;
#X connect 25 0 24 1;
#X connect 26 0 17 1;
#X connect 27 0 2 0;
#X connect 29 0 28 0;
#X connect 31 0 0 0;
#X connect 32 0 34 0;
#X connect 33 0 20 1;
#X connect 34 0 33 0;
#X connect 35 0 40 0;
#X connect 36 0 41 1;
#X connect 37 0 36 0;
#X connect 38 0 42 1;
#X connect 39 0 38 0;
#X connect 40 0 2 2;
#X connect 41 0 35 0;
#X connect 42 0 41 2;
#X connect 43 0 41 0;
#X restore 1782 1209 pd choose-bass-note;
#X obj 553 1149 s kick-off-count;
#X obj 1677 963 r kick-off-count;
#X obj 847 1138 s snare-on;
#X obj 1943 963 r snare-on;
#N canvas 710 340 450 300 choose-spiral-note 0;
#X obj 1026 1620 control-oscillator 1 32 0;
#X obj 1013 2070 pack;
#X obj 1013 1844 % 12;
#X obj 1012 1816 * 7;
#X obj 1012 1792 % 7;
#X obj 1013 1866 + 48;
#X obj 974 1436 t b b;
#X obj 991 1654 i;
#X obj 998 1731 + 32;
#X obj 926 1795 s spiral-note;
#X obj 1116 1509 r spiral-size;
#X obj 1168 1575 r reset;
#X floatatom 1116 1531 5 0 0 0 - - -, f 5;
#X obj 998 1683 +;
#X obj 1037 1698 r spiral-offset;
#X floatatom 1037 1720 5 0 0 0 - - -, f 5;
#X obj 932 2139 noteout;
#X obj 934 2114 pack 0 0 3;
#X obj 1058 1771 random 3;
#X obj 1057 1797 sel 0 1 2;
#X obj 1012 2048 makenote 100 500;
#X msg 1050 1836 500;
#X msg 1085 1833 600;
#X msg 1120 1833 1200;
#X obj 963 1407 inlet;
#X obj 1013 2092 outlet;
#X obj 1034 1406 inlet;
#X obj 1083 1404 inlet;
#X obj 951 1969 gate;
#X obj 950 1948 decide;
#X obj 950 1925 r randomize;
#X connect 0 0 7 1;
#X connect 1 0 17 0;
#X connect 1 0 25 0;
#X connect 2 0 5 0;
#X connect 3 0 2 0;
#X connect 4 0 3 0;
#X connect 5 0 28 1;
#X connect 6 0 7 0;
#X connect 6 1 18 0;
#X connect 7 0 13 0;
#X connect 8 0 4 0;
#X connect 8 0 9 0;
#X connect 10 0 12 0;
#X connect 11 0 0 3;
#X connect 12 0 0 2;
#X connect 13 0 8 0;
#X connect 14 0 15 0;
#X connect 15 0 13 1;
#X connect 17 0 16 0;
#X connect 18 0 19 0;
#X connect 19 0 21 0;
#X connect 19 1 22 0;
#X connect 19 2 23 0;
#X connect 20 0 1 0;
#X connect 20 1 1 1;
#X connect 21 0 20 2;
#X connect 22 0 20 2;
#X connect 23 0 20 2;
#X connect 24 0 6 0;
#X connect 26 0 0 0;
#X connect 27 0 0 1;
#X connect 28 0 20 0;
#X connect 29 0 28 0;
#X connect 30 0 29 0;
#X restore 1315 1332 pd choose-spiral-note;
#X obj 1424 1737 loadbang;
#X msg 1423 1759 \; spiral-lead-level 0.088;
#X obj 1782 1180 gate;
#X obj 1777 1149 decide;
#X obj 1766 1120 r reset;
#X obj 2687 900 r reset;
#X obj 1801 1984 throw~ reverb-send1;
#X text 720 885 DRUMS;
#X text 1837 895 BASS;
#X text 1341 895 MELODY;
#X text 2573 883 HARMONY;
#X text 1363 526 EFFECTS;
#X obj 853 532 % 128;
#X obj 1262 1878 throw~ delay-send-L;
#X obj 1387 1879 throw~ delay-send-R;
#N canvas 60 283 1551 718 mute-modulations 0;
#X obj 156 176 decide;
#X obj 238 175 decide;
#X obj 311 177 decide;
#X obj 238 151 r randomize;
#X obj 311 152 r randomize;
#X obj 156 318 s bd-on;
#X obj 238 206 s sn-on;
#X obj 311 206 s hh-on;
#X obj 391 177 decide;
#X obj 391 205 s ride-on;
#X obj 526 176 decide;
#X obj 608 175 decide;
#X obj 681 177 decide;
#X obj 526 204 s bass-on;
#X obj 608 203 s chord-on;
#X obj 986 118 r bd-on;
#X obj 1050 156 r sn-on;
#X obj 1101 157 r hh-on;
#X obj 1151 157 r ride-on;
#X obj 1213 157 r bass-on;
#X obj 1276 157 r chord-on;
#X obj 681 202 s spiral-on;
#X obj 681 152 r reset;
#X obj 608 151 r reset;
#X msg 958 596 16;
#X obj 984 630 s phrase-length;
#X msg 1089 495 128;
#X floatatom 1139 358 5 0 0 0 - - -, f 5;
#X obj 873 124 r phrase-length;
#X obj 959 470 gate 2 1;
#X obj 959 450 + 1;
#X msg 1034 498 4;
#X obj 156 151 r reset;
#X obj 959 492 t a b;
#X obj 984 514 decide;
#X obj 984 536 + 1;
#X obj 961 568 gate 2 1;
#X obj 1346 158 r spiral-on;
#X obj 1053 332 expr $f1+$f2+$f3+$f4+$f5+$f6+$f7;
#X obj 1033 215 &&;
#X obj 1066 214 &&;
#X obj 1053 280 pack 0 0 0 0 0;
#X obj 999 309 list;
#X obj 986 140 t b a;
#X obj 986 162 delay 1;
#X obj 873 171 == 16;
#X obj 873 198 ||;
#X obj 873 146 t a a;
#X msg 1011 598 48;
#X obj 915 171 == 48;
#X obj 1023 406 bng 15 250 50 0 empty empty empty 17 7 0 10 -262144
-1 -1;
#X obj 1053 359 moses 3;
#X obj 526 151 r randomize;
#X obj 391 152 r reset;
#X connect 0 0 5 0;
#X connect 1 0 6 0;
#X connect 2 0 7 0;
#X connect 3 0 1 0;
#X connect 4 0 2 0;
#X connect 8 0 9 0;
#X connect 10 0 13 0;
#X connect 11 0 14 0;
#X connect 12 0 21 0;
#X connect 15 0 43 0;
#X connect 16 0 39 1;
#X connect 17 0 40 0;
#X connect 18 0 40 1;
#X connect 19 0 41 2;
#X connect 20 0 41 3;
#X connect 22 0 12 0;
#X connect 23 0 11 0;
#X connect 24 0 25 0;
#X connect 26 0 25 0;
#X connect 28 0 47 0;
#X connect 29 0 33 0;
#X connect 29 1 31 0;
#X connect 30 0 29 0;
#X connect 31 0 25 0;
#X connect 32 0 0 0;
#X connect 33 0 36 1;
#X connect 33 1 34 0;
#X connect 34 0 35 0;
#X connect 35 0 36 0;
#X connect 36 0 24 0;
#X connect 36 1 48 0;
#X connect 37 0 41 4;
#X connect 38 0 27 0;
#X connect 38 0 51 0;
#X connect 39 0 41 0;
#X connect 40 0 41 1;
#X connect 41 0 42 1;
#X connect 42 0 38 0;
#X connect 43 0 44 0;
#X connect 43 1 39 0;
#X connect 44 0 42 0;
#X connect 45 0 46 0;
#X connect 46 0 30 0;
#X connect 47 0 45 0;
#X connect 47 1 49 0;
#X connect 48 0 25 0;
#X connect 49 0 46 1;
#X connect 50 0 29 1;
#X connect 51 0 50 0;
#X connect 51 1 26 0;
#X connect 52 0 10 0;
#X connect 53 0 8 0;
#X restore 389 825 pd mute-modulations;
#N canvas 640 62 1017 766 pattern-modulations 0;
#X obj 64 160 select 1;
#X obj 64 66 r fibonacci-beat;
#X obj 92 271 s restart-fibonacci-beat;
#X obj 206 3 r beats-until-change;
#X obj 206 25 t f b;
#X obj 240 81 * 16;
#X obj 220 104 /;
#X obj 224 137 > 1;
#X obj 224 159 sel 1;
#X obj 224 181 bng 15 250 50 0 empty empty empty 17 7 0 10 -262144
-1 -1;
#X obj 347 456 sel 0 1;
#X msg 380 485 1024;
#X obj 282 210 random 12;
#X obj 302 312 +;
#X obj 324 358 i;
#X obj 366 371 * 16;
#X obj 346 394 /;
#X obj 350 427 > 1;
#X obj 366 349 i 64;
#X obj 282 232 t f f b b;
#X msg 472 101 \; bell1-length 5 \; bell1-hits 3 \; bell1-rotation
8;
#X msg 627 99 \; lead1-length 16 \; lead1-hits 1 \; lead1-rotation
0;
#X msg 846 99 \; lead3-length 16 \; lead3-hits 1 \; lead3-rotation
14;
#X msg 735 100 \; lead2-length 16 \; lead2-hits 1 \; lead2-rotation
1;
#X obj 666 40 loadbang;
#X obj 240 59 i 256;
#X msg 348 485 256;
#X obj 606 238 r restart-fibbonaci-beat;
#X obj 605 260 random 12;
#X obj 607 313 sel 1;
#X obj 501 388 decide;
#X obj 501 410 select 0 1;
#X msg 457 486 \; bell1-length 5 \; bell1-hits 3 \; bell1-rotation
8;
#X msg 634 501 \; lead1-length 16 \; lead1-hits 1 \; lead1-rotation
0;
#X msg 853 501 \; lead3-length 16 \; lead3-hits 1 \; lead3-rotation
14;
#X msg 742 502 \; lead2-length 16 \; lead2-hits 1 \; lead2-rotation
1;
#X msg 471 557 \; bell1-length 8 \; bell1-hits 2 \; bell1-rotation
1;
#X obj 749 400 decide;
#X obj 749 422 select 0 1;
#X msg 635 571 \; lead1-length 32 \; lead1-hits 1 \; lead1-rotation
0;
#X msg 743 572 \; lead2-length 32 \; lead2-hits 1 \; lead2-rotation
1;
#X msg 854 571 \; lead3-length 32 \; lead3-hits 1 \; lead3-rotation
14;
#X obj 605 282 > 3;
#X obj 607 335 bng 15 250 50 0 empty empty empty 17 7 0 10 -262144
-1 -1;
#X obj 67 444 r restart-fibonacci-beat;
#X obj 67 471 random 12;
#X obj 67 493 > 3;
#X obj 67 515 sel 1;
#X obj 59 571 random 4;
#X obj 59 593 select 0 1 2 3;
#X obj 53 647 i 32;
#X obj 83 647 i 7;
#X obj 113 647 i 3;
#X obj 143 647 i 2;
#X obj 73 699 s spiral-size;
#X obj 192 561 random 12;
#X obj 192 583 > 3;
#X obj 192 605 sel 1;
#X obj 198 668 select 0 1 2 3;
#X obj 222 722 i 7;
#X obj 198 646 counter 0 4;
#X obj 192 722 i 0;
#X obj 252 722 i 11;
#X obj 282 722 i 14;
#X obj 223 757 s spiral-offset;
#X obj 323 598 random 12;
#X obj 323 620 > 3;
#X obj 323 642 sel 1;
#X obj 382 820 s key;
#X obj 356 707 random 3;
#X obj 356 729 * 7;
#X obj 64 133 random 16;
#X connect 0 0 2 0;
#X connect 1 0 71 0;
#X connect 3 0 4 0;
#X connect 4 0 6 0;
#X connect 4 1 25 0;
#X connect 5 0 6 1;
#X connect 6 0 7 0;
#X connect 7 0 8 0;
#X connect 8 0 2 0;
#X connect 8 0 9 0;
#X connect 9 0 12 0;
#X connect 10 0 26 0;
#X connect 10 1 11 0;
#X connect 11 0 25 1;
#X connect 12 0 19 0;
#X connect 13 0 14 1;
#X connect 14 0 13 1;
#X connect 14 0 16 0;
#X connect 15 0 16 1;
#X connect 16 0 17 0;
#X connect 17 0 10 0;
#X connect 18 0 15 0;
#X connect 19 1 13 0;
#X connect 19 2 14 0;
#X connect 19 3 18 0;
#X connect 24 0 20 0;
#X connect 24 0 21 0;
#X connect 24 0 23 0;
#X connect 24 0 22 0;
#X connect 25 0 5 0;
#X connect 26 0 25 1;
#X connect 27 0 28 0;
#X connect 28 0 42 0;
#X connect 29 0 43 0;
#X connect 30 0 31 0;
#X connect 31 0 32 0;
#X connect 31 1 36 0;
#X connect 37 0 38 0;
#X connect 38 0 33 0;
#X connect 38 0 35 0;
#X connect 38 0 34 0;
#X connect 38 1 39 0;
#X connect 38 1 40 0;
#X connect 38 1 41 0;
#X connect 42 0 29 0;
#X connect 43 0 30 0;
#X connect 43 0 37 0;
#X connect 44 0 45 0;
#X connect 45 0 46 0;
#X connect 46 0 47 0;
#X connect 47 0 48 0;
#X connect 47 0 55 0;
#X connect 48 0 49 0;
#X connect 49 0 50 0;
#X connect 49 1 51 0;
#X connect 49 2 52 0;
#X connect 49 3 53 0;
#X connect 50 0 54 0;
#X connect 51 0 54 0;
#X connect 52 0 54 0;
#X connect 53 0 54 0;
#X connect 55 0 56 0;
#X connect 56 0 57 0;
#X connect 57 0 60 0;
#X connect 57 0 65 0;
#X connect 58 0 61 0;
#X connect 58 1 59 0;
#X connect 58 2 62 0;
#X connect 58 3 63 0;
#X connect 59 0 64 0;
#X connect 60 0 58 0;
#X connect 61 0 64 0;
#X connect 62 0 64 0;
#X connect 63 0 64 0;
#X connect 65 0 66 0;
#X connect 66 0 67 0;
#X connect 67 0 69 0;
#X connect 69 0 70 0;
#X connect 70 0 68 0;
#X connect 71 0 0 0;
#X restore 389 748 pd pattern-modulations;
#X obj 1274 920 r spiral-on;
#X obj 528 955 r bd-on;
#X obj 925 511 r phrase-length;
#X obj 455 1149 s kick-on-hit;
#X obj 1857 962 r kick-on-hit;
#X obj 901 982 gate;
#X obj 899 940 r ride-on;
#X obj 1778 622 catch~ delay-send-L;
#X obj 1910 623 catch~ delay-send-R;
#X obj 1817 761 delwrite~ line-L 1200;
#X obj 1949 764 delwrite~ line-R 1200;
#X obj 1774 670 delread~ line-L 300;
#X obj 1906 669 delread~ line-R 450;
#X obj 1891 714 *~ 0.33;
#X obj 1659 820 output~;
#X obj 1663 868 dac~ 13 14;
#X floatatom 1794 817 5 0 0 0 - - -, f 5;
#X obj 1828 712 *~ 0.45;
#X obj 2415 1640 throw~ delay-send-L;
#X obj 2540 1641 throw~ delay-send-R;
#X obj 1852 826 loadbang;
#X msg 1852 848 \; delay-level 0.45;
#X obj 1714 762 r delay-level;
#X obj 1359 857 throw~ delay-send-L;
#X obj 1484 858 throw~ delay-send-R;
#X obj 1430 756 *~ 0.33;
#X obj 818 962 r sn-on;
#X obj 612 956 r hh-on;
#X obj 407 1261 + 50;
#X obj 406 1219 random-ramp 70 600;
#X obj 406 1192 r randomize;
#X floatatom 407 1283 5 0 0 0 - - -, f 5;
#X obj 406 1098 + 50;
#X obj 405 1056 random-ramp 70 600;
#X obj 405 1029 r randomize;
#X obj 398 1405 line~;
#X obj 397 1353 / 127;
#X obj 397 1326 clip 0 127;
#X obj 397 1375 expr 1 - $f1;
#X obj 289 1651 throw~ delay-send-L;
#X obj 414 1652 throw~ delay-send-R;
#X obj 401 1606 *~;
#X obj 398 1427 *~;
#X obj 398 1449 *~;
#X obj 2348 1771 r reset;
#X obj 2485 1817 bng 43 250 50 0 empty empty empty 17 7 0 10 -262144
-1 -1;
#X obj 2659 1717 r spiral-note;
#X obj 2559 1981 f;
#X obj 2685 1785 t b a b;
#X obj 2636 1977 +;
#X obj 2483 1872 delay;
#X obj 2483 1894 t b b;
#X obj 2467 1983 gate;
#X obj 2467 1933 random 10;
#X obj 2457 2006 t b b;
#X obj 2489 2045 random 7;
#X obj 2489 2130 * 150;
#X obj 2559 2255 makenote 100 100 600;
#X obj 2597 2436 pack 0 0 0;
#X obj 2597 2458 route 0 1 2 3 4 5;
#X obj 2561 2093 % 12;
#X obj 2560 2065 * 7;
#X obj 2560 2038 % 7;
#X obj 2559 2003 t a a b;
#X obj 2609 3063 tanh~;
#X obj 2610 3131 output~;
#X obj 2610 3095 *~ 0.77;
#X obj 2772 2431 random-ramp 40 1200;
#X obj 2909 2431 random-ramp 24 1200;
#X obj 2489 2066 / 64;
#X obj 2245 2566 fm-tone06-07-2018~;
#X obj 2425 2566 fm-tone06-07-2018~;
#X obj 2606 2568 fm-tone06-07-2018~;
#X obj 2785 2569 fm-tone06-07-2018~;
#X obj 2968 2572 fm-tone06-07-2018~;
#X obj 2659 1739 % 48;
#X obj 2245 1995 gate;
#X obj 2245 1934 random 10;
#X obj 2245 2017 t b b;
#X obj 2277 2066 random 7;
#X obj 2277 2087 / 64;
#X obj 2277 2113 * 1200;
#X obj 2245 1956 > 7;
#X obj 2587 2364 % 5;
#X obj 2467 1955 > 2;
#X obj 2675 2085 random 128;
#X obj 2675 2106 / 48;
#X obj 2675 2128 / 4;
#X obj 2675 2150 + 1;
#X obj 2572 3226 throw~ reverb-send2;
#X obj 2292 1884 t b b;
#X obj 2607 2202 + 7;
#X obj 2758 2119 r reset;
#X msg 2736 2237 stop;
#X obj 2735 3189 throw~ delay-send-L;
#X obj 2735 3214 throw~ delay-send-R;
#X obj 2963 2391 random-ramp 127 1200;
#X obj 2949 2463 random-ramp 127 1200;
#X obj 2675 2198 * 600;
#X obj 2596 2336 poly 5 1;
#X obj 2318 2396 random-ramp 127;
#X obj 2318 2418 / 127;
#X obj 2607 3014 *~ 1;
#X obj 1345 1361 random-ramp 40 600;
#X obj 1906 1250 random 20;
#X obj 2713 3056 loadbang;
#X obj 2559 2200 + 48;
#X obj 2399 1725 r randomize;
#X obj 2491 1694 r count;
#X obj 2491 1759 == 0;
#X obj 2491 1781 gate;
#X obj 2491 1737 % 16;
#X obj 2318 2440 * 8;
#X obj 2838 2393 random-ramp 40 1200;
#X obj 2738 2280 r randomize;
#X obj 2749 1795 r randomize;
#X obj 2713 3078 f 0.26;
#X obj 2634 1927 % 24;
#X floatatom 2690 1949 5 0 0 0 - - -, f 5;
#X obj 2634 1949 + 24;
#X obj 2568 1837 bng 15 250 50 0 empty empty empty 17 7 0 10 -262144
-1 -1;
#X obj 2634 1905 * 2;
#X floatatom 2681 1911 5 0 0 0 - - -, f 5;
#X obj 2627 1829 bng 15 250 50 0 empty empty empty 17 7 0 10 -262144
-1 -1;
#X obj 2619 1872 counter;
#X obj 2367 1805 delay 450;
#X obj 2292 1862 delay 1200;
#X obj 2258 1356 osc~;
#X floatatom 2182 1176 5 0 0 0 - - -, f 5;
#X obj 2258 1378 *~;
#X obj 391 879 declare -path library;
#X connect 0 0 179 0;
#X connect 0 0 220 0;
#X connect 0 1 195 0;
#X connect 1 0 9 0;
#X connect 2 0 188 0;
#X connect 2 0 197 0;
#X connect 4 0 160 0;
#X connect 4 0 166 0;
#X connect 4 0 258 1;
#X connect 4 2 125 0;
#X connect 5 0 8 0;
#X connect 5 0 8 1;
#X connect 6 0 7 0;
#X connect 6 0 7 1;
#X connect 7 0 160 0;
#X connect 7 0 166 1;
#X connect 7 2 126 0;
#X connect 8 0 160 0;
#X connect 8 0 166 2;
#X connect 8 2 127 0;
#X connect 9 0 6 4;
#X connect 9 0 152 0;
#X connect 10 0 4 0;
#X connect 10 0 4 1;
#X connect 11 0 10 1;
#X connect 12 0 10 2;
#X connect 13 0 10 3;
#X connect 15 0 6 1;
#X connect 16 0 6 2;
#X connect 17 0 6 3;
#X connect 18 0 5 1;
#X connect 19 0 5 2;
#X connect 20 0 5 3;
#X connect 22 0 173 0;
#X connect 23 0 21 0;
#X connect 25 0 23 0;
#X connect 26 0 82 0;
#X connect 27 0 22 0;
#X connect 28 0 109 1;
#X connect 28 0 110 1;
#X connect 28 0 111 1;
#X connect 28 0 222 1;
#X connect 29 0 202 1;
#X connect 30 0 31 0;
#X connect 30 0 31 1;
#X connect 31 0 169 0;
#X connect 31 0 206 0;
#X connect 31 1 169 1;
#X connect 31 2 133 0;
#X connect 32 0 202 1;
#X connect 33 0 32 0;
#X connect 34 0 38 1;
#X connect 35 0 36 0;
#X connect 36 0 52 0;
#X connect 36 0 53 0;
#X connect 36 0 118 0;
#X connect 36 0 194 1;
#X connect 37 0 321 0;
#X connect 38 0 30 1;
#X connect 39 0 40 0;
#X connect 40 0 53 2;
#X connect 41 0 30 2;
#X connect 42 0 41 1;
#X connect 43 0 48 1;
#X connect 44 0 45 0;
#X connect 44 0 45 1;
#X connect 45 0 156 0;
#X connect 45 0 167 0;
#X connect 45 0 235 0;
#X connect 45 1 167 1;
#X connect 45 1 236 0;
#X connect 45 2 130 0;
#X connect 46 0 47 0;
#X connect 46 0 47 1;
#X connect 47 0 156 0;
#X connect 47 0 167 0;
#X connect 47 0 235 0;
#X connect 47 1 167 1;
#X connect 47 1 236 0;
#X connect 47 2 131 0;
#X connect 48 0 83 0;
#X connect 48 0 84 0;
#X connect 48 0 85 0;
#X connect 49 0 48 0;
#X connect 50 0 51 0;
#X connect 50 0 51 1;
#X connect 51 0 156 0;
#X connect 51 0 167 0;
#X connect 51 0 235 0;
#X connect 51 1 167 1;
#X connect 51 1 236 0;
#X connect 51 2 132 0;
#X connect 52 0 38 0;
#X connect 53 0 41 0;
#X connect 55 0 56 0;
#X connect 56 0 65 0;
#X connect 57 0 116 0;
#X connect 57 0 124 0;
#X connect 58 0 57 1;
#X connect 59 0 160 0;
#X connect 59 0 166 3;
#X connect 59 2 128 0;
#X connect 60 0 63 1;
#X connect 61 0 63 2;
#X connect 62 0 63 3;
#X connect 63 0 59 0;
#X connect 63 0 59 1;
#X connect 64 0 192 0;
#X connect 65 0 118 1;
#X connect 66 0 50 2;
#X connect 67 0 46 2;
#X connect 68 0 44 2;
#X connect 69 0 44 1;
#X connect 69 0 46 1;
#X connect 69 0 50 1;
#X connect 70 0 158 0;
#X connect 70 0 168 0;
#X connect 70 0 213 0;
#X connect 70 1 168 1;
#X connect 70 1 214 0;
#X connect 70 2 135 0;
#X connect 71 0 175 0;
#X connect 72 0 164 0;
#X connect 72 0 165 0;
#X connect 72 0 199 1;
#X connect 72 0 320 0;
#X connect 72 1 199 2;
#X connect 73 0 199 0;
#X connect 74 0 112 1;
#X connect 75 0 86 0;
#X connect 76 0 212 0;
#X connect 78 0 80 0;
#X connect 79 0 71 0;
#X connect 80 0 77 0;
#X connect 82 0 24 0;
#X connect 82 1 81 0;
#X connect 83 0 68 0;
#X connect 83 0 69 0;
#X connect 83 0 107 0;
#X connect 83 0 193 0;
#X connect 84 0 67 0;
#X connect 84 0 193 1;
#X connect 85 0 66 0;
#X connect 85 0 193 2;
#X connect 86 0 87 0;
#X connect 87 0 71 0;
#X connect 88 0 90 1;
#X connect 89 0 171 0;
#X connect 89 0 240 0;
#X connect 89 1 171 1;
#X connect 89 1 241 0;
#X connect 89 2 129 0;
#X connect 90 0 89 0;
#X connect 90 1 89 1;
#X connect 91 0 99 1;
#X connect 93 0 99 2;
#X connect 95 0 99 3;
#X connect 96 0 99 4;
#X connect 99 0 100 0;
#X connect 99 1 100 1;
#X connect 100 0 170 0;
#X connect 100 1 170 1;
#X connect 100 2 134 0;
#X connect 101 0 102 0;
#X connect 102 0 88 0;
#X connect 103 0 104 0;
#X connect 103 0 105 0;
#X connect 103 0 106 0;
#X connect 103 0 108 0;
#X connect 104 0 93 0;
#X connect 105 0 95 0;
#X connect 106 0 96 0;
#X connect 107 0 44 3;
#X connect 107 0 46 3;
#X connect 107 0 50 3;
#X connect 108 0 91 0;
#X connect 109 0 0 0;
#X connect 110 0 1 0;
#X connect 111 0 2 0;
#X connect 112 0 73 0;
#X connect 113 0 114 0;
#X connect 114 0 117 0;
#X connect 115 0 30 4;
#X connect 116 0 115 1;
#X connect 117 0 115 0;
#X connect 118 0 57 0;
#X connect 119 0 120 0;
#X connect 120 0 121 0;
#X connect 121 0 122 0;
#X connect 122 0 123 0;
#X connect 123 0 30 6;
#X connect 124 0 30 3;
#X connect 137 0 45 2;
#X connect 138 0 47 2;
#X connect 139 0 51 2;
#X connect 140 0 136 0;
#X connect 141 0 162 0;
#X connect 141 0 163 0;
#X connect 142 0 70 2;
#X connect 143 0 100 2;
#X connect 144 0 145 0;
#X connect 146 0 159 0;
#X connect 147 0 4 2;
#X connect 148 0 7 2;
#X connect 149 0 8 2;
#X connect 150 0 59 2;
#X connect 151 0 89 2;
#X connect 152 0 183 0;
#X connect 152 1 184 0;
#X connect 153 0 154 0;
#X connect 155 0 31 2;
#X connect 157 0 99 0;
#X connect 161 0 70 0;
#X connect 161 1 70 1;
#X connect 162 0 161 6;
#X connect 163 0 161 5;
#X connect 164 0 161 3;
#X connect 165 0 161 2;
#X connect 173 0 82 0;
#X connect 174 0 90 0;
#X connect 174 0 242 0;
#X connect 175 0 72 0;
#X connect 176 0 177 0;
#X connect 176 1 177 1;
#X connect 177 0 178 0;
#X connect 177 0 10 0;
#X connect 179 0 176 0;
#X connect 180 0 181 0;
#X connect 180 1 181 1;
#X connect 181 0 182 0;
#X connect 181 0 6 0;
#X connect 183 0 180 0;
#X connect 184 0 180 0;
#X connect 185 0 186 0;
#X connect 185 1 186 1;
#X connect 186 0 187 0;
#X connect 186 0 5 0;
#X connect 188 0 185 0;
#X connect 189 0 190 0;
#X connect 189 1 190 1;
#X connect 190 0 191 0;
#X connect 190 0 63 0;
#X connect 192 0 189 0;
#X connect 193 0 44 0;
#X connect 193 1 46 0;
#X connect 193 2 50 0;
#X connect 194 0 30 0;
#X connect 196 0 29 0;
#X connect 198 0 33 0;
#X connect 199 0 161 0;
#X connect 200 0 201 0;
#X connect 202 0 194 0;
#X connect 203 0 202 0;
#X connect 204 0 203 0;
#X connect 205 0 49 0;
#X connect 212 0 78 0;
#X connect 217 0 112 0;
#X connect 218 0 109 0;
#X connect 219 0 212 1;
#X connect 221 0 33 0;
#X connect 222 0 64 0;
#X connect 223 0 222 0;
#X connect 224 0 226 0;
#X connect 225 0 227 0;
#X connect 228 0 231 0;
#X connect 228 0 234 0;
#X connect 229 0 230 0;
#X connect 229 0 231 1;
#X connect 230 0 226 0;
#X connect 231 0 232 0;
#X connect 231 1 232 1;
#X connect 231 2 233 0;
#X connect 234 0 227 0;
#X connect 237 0 238 0;
#X connect 239 0 231 2;
#X connect 242 0 240 0;
#X connect 242 0 241 0;
#X connect 243 0 111 0;
#X connect 244 0 110 0;
#X connect 245 0 176 1;
#X connect 245 0 248 0;
#X connect 245 0 254 0;
#X connect 246 0 245 0;
#X connect 247 0 246 0;
#X connect 249 0 180 1;
#X connect 250 0 249 0;
#X connect 251 0 250 0;
#X connect 252 0 259 0;
#X connect 252 0 259 1;
#X connect 253 0 255 0;
#X connect 254 0 253 0;
#X connect 255 0 252 0;
#X connect 258 0 256 0;
#X connect 258 0 257 0;
#X connect 259 0 260 0;
#X connect 259 0 260 1;
#X connect 260 0 258 0;
#X connect 261 0 342 0;
#X connect 262 0 267 0;
#X connect 263 0 292 0;
#X connect 264 0 280 0;
#X connect 265 1 266 1;
#X connect 265 2 341 2;
#X connect 266 0 264 1;
#X connect 267 0 268 0;
#X connect 268 0 269 1;
#X connect 268 0 264 0;
#X connect 268 1 270 0;
#X connect 268 1 341 0;
#X connect 269 0 271 0;
#X connect 270 0 301 0;
#X connect 271 0 262 0;
#X connect 271 1 272 0;
#X connect 272 0 286 0;
#X connect 273 0 267 1;
#X connect 274 0 316 0;
#X connect 274 1 316 1;
#X connect 275 0 276 0;
#X connect 276 0 287 0;
#X connect 276 1 288 0;
#X connect 276 2 289 0;
#X connect 276 3 290 0;
#X connect 276 4 291 0;
#X connect 277 0 323 0;
#X connect 278 0 277 0;
#X connect 279 0 278 0;
#X connect 280 0 279 0;
#X connect 280 2 302 0;
#X connect 281 0 283 0;
#X connect 282 0 306 0;
#X connect 282 0 311 0;
#X connect 282 1 312 0;
#X connect 283 0 282 0;
#X connect 283 0 282 1;
#X connect 284 0 287 4;
#X connect 285 0 287 5;
#X connect 285 0 288 4;
#X connect 285 0 289 4;
#X connect 285 0 290 4;
#X connect 285 0 291 4;
#X connect 286 0 273 0;
#X connect 287 0 319 0;
#X connect 288 0 319 0;
#X connect 289 0 319 0;
#X connect 290 0 319 0;
#X connect 291 0 319 0;
#X connect 292 0 265 0;
#X connect 293 0 295 0;
#X connect 294 0 299 0;
#X connect 295 0 262 0;
#X connect 295 1 296 0;
#X connect 296 0 297 0;
#X connect 297 0 298 0;
#X connect 298 0 343 1;
#X connect 299 0 293 0;
#X connect 300 0 275 0;
#X connect 301 0 269 0;
#X connect 302 0 303 0;
#X connect 303 0 304 0;
#X connect 304 0 305 0;
#X connect 305 0 315 0;
#X connect 307 0 293 1;
#X connect 307 1 294 0;
#X connect 308 0 274 0;
#X connect 309 0 310 0;
#X connect 310 0 316 0;
#X connect 313 0 287 3;
#X connect 313 0 288 3;
#X connect 313 0 289 3;
#X connect 313 0 290 3;
#X connect 313 0 291 3;
#X connect 314 0 287 6;
#X connect 314 0 288 5;
#X connect 314 0 290 5;
#X connect 314 0 291 5;
#X connect 315 0 274 2;
#X connect 316 0 300 0;
#X connect 316 1 275 1;
#X connect 316 2 275 2;
#X connect 317 0 318 0;
#X connect 318 0 329 0;
#X connect 319 0 281 0;
#X connect 320 0 161 1;
#X connect 321 0 52 2;
#X connect 322 0 333 0;
#X connect 323 0 274 0;
#X connect 323 0 308 0;
#X connect 324 0 327 1;
#X connect 325 0 328 0;
#X connect 326 0 327 0;
#X connect 327 0 342 0;
#X connect 328 0 326 0;
#X connect 329 0 287 1;
#X connect 329 0 288 1;
#X connect 329 0 289 1;
#X connect 329 0 290 1;
#X connect 329 0 291 1;
#X connect 329 0 291 2;
#X connect 330 0 287 2;
#X connect 330 0 288 2;
#X connect 330 0 289 2;
#X connect 330 0 290 2;
#X connect 330 0 291 2;
#X connect 331 0 284 0;
#X connect 331 0 285 0;
#X connect 331 0 313 0;
#X connect 331 0 314 0;
#X connect 331 0 317 0;
#X connect 331 0 330 0;
#X connect 332 0 341 2;
#X connect 333 0 282 2;
#X connect 334 0 336 0;
#X connect 336 0 266 0;
#X connect 336 0 335 0;
#X connect 337 0 341 0;
#X connect 338 0 334 0;
#X connect 340 0 341 2;
#X connect 341 0 338 0;
#X connect 341 0 339 0;
#X connect 342 0 262 0;
#X connect 342 0 343 0;
#X connect 343 0 307 0;
#X connect 344 0 346 0;
#X connect 345 0 344 0;
