#N canvas 105 51 1735 718 10;
#X declare -path library;
#X obj 1176 263 euclidean-generator bd;
#X obj 1326 263 euclidean-generator hh;
#X obj 1468 263 euclidean-generator sn;
#X obj 392 160 tgl 43 0 isPlaying set-isPlaying Start/Stop 17 7 0 10
-262144 -1 -1 0 1;
#X obj 1174 743 output~;
#X obj 1468 611 snare-drum02-02-2018~;
#X obj 1323 612 high-hat02-02-2018~;
#X obj 1319 761 output~;
#X obj 1488 761 output~;
#X obj 1326 355 decide;
#X obj 1173 613 kick06-06-2018~;
#X obj 1166 542 r bd-softness;
#X obj 1176 562 r bd-dirt;
#X obj 1186 582 r bd-size;
#N canvas 189 159 1454 762 drum-timbre-modulations 0;
#X obj 73 -44 random-ramp 50 150;
#X obj 73 -113 r randomize;
#X obj 96 -81 r beats-until-change;
#X obj 105 -19 r randomize;
#X obj 128 13 r beats-until-change;
#X obj 132 73 r randomize;
#X obj 155 105 r beats-until-change;
#X obj 105 50 random-ramp 22 150;
#X msg 72 280 \; bd-softness \$1;
#X msg 98 225 \; bd-dirt \$1;
#X msg 130 467 \; bd-size \$1;
#X obj 352 -113 r randomize;
#X obj 375 -81 r beats-until-change;
#X obj 384 -19 r randomize;
#X obj 407 13 r beats-until-change;
#X obj 411 73 r randomize;
#X obj 434 105 r beats-until-change;
#X obj 352 -44 random-ramp 14 150;
#X obj 384 50 random-ramp 34 150;
#X obj 411 142 random-ramp 22 150;
#X msg 407 173 \; hh-size \$1;
#X msg 375 224 \; hh-dirt \$1;
#X msg 349 279 \; hh-softness \$1;
#X obj 17 57 t b f;
#X obj 15 172 line;
#X obj 17 79 decide;
#X obj 21 199 +;
#X obj 17 102 metro 100;
#X obj 17 146 pack f 100;
#X obj 17 124 random 6;
#X obj 301 42 t b f;
#X obj 299 157 line;
#X obj 301 64 decide;
#X obj 305 184 +;
#X obj 301 87 metro 100;
#X obj 301 131 pack f 100;
#X obj 301 109 random 6;
#X obj 184 234 t b f;
#X obj 182 349 line;
#X obj 184 256 decide;
#X obj 188 376 +;
#X obj 184 279 metro 100;
#X obj 184 323 pack f 100;
#X obj 1246 -94 r randomize;
#X obj 1269 -62 r beats-until-change;
#X obj 1278 0 r randomize;
#X obj 1301 32 r beats-until-change;
#X obj 1246 -25 random-ramp 14 150;
#X obj 1278 69 random-ramp 34 150;
#X obj 1307 248 blur-control-stream 100 6 100;
#X obj 566 -94 r randomize;
#X obj 589 -62 r beats-until-change;
#X obj 598 0 r randomize;
#X obj 621 32 r beats-until-change;
#X obj 625 92 r randomize;
#X obj 648 124 r beats-until-change;
#X obj 566 -25 random-ramp 14 150;
#X obj 598 69 random-ramp 34 150;
#X obj 625 161 random-ramp 44 150;
#X obj 697 240 blur-control-stream 100 50 100;
#X obj 697 262 s sn-size;
#X obj 647 348 blur-control-stream 100 20 100;
#X obj 647 370 s sn-dirt;
#X obj 564 411 blur-control-stream 100 6 100;
#X obj 559 303 blur-control-stream 300 6 100;
#X obj 1307 270 s bz-index;
#X obj 1337 158 blur-control-stream 100 6 100;
#X obj 1249 113 blur-control-stream 300 60 100;
#X obj 1337 180 s bz-center;
#X obj 906 -94 r randomize;
#X obj 929 -62 r beats-until-change;
#X obj 938 0 r randomize;
#X obj 961 32 r beats-until-change;
#X obj 965 92 r randomize;
#X obj 988 124 r beats-until-change;
#X obj 906 -25 random-ramp 14 150;
#X obj 938 69 random-ramp 34 150;
#X obj 965 161 random-ramp 44 150;
#X obj 1037 240 blur-control-stream 100 50 100;
#X obj 899 303 blur-control-stream 300 6 100;
#X obj 1037 262 s rd-size;
#X obj 987 370 s rd-dirt;
#X obj 956 469 s rd-softness;
#X obj 567 490 s sn-softness;
#X obj 987 348 blur-control-stream 100 6 100;
#X obj 564 433 / 24;
#X obj 957 438 blur-control-stream 100 6 600;
#X obj 132 142 random-ramp 127 150;
#X obj 184 301 random 24;
#X obj 188 398 + 20;
#X connect 0 0 23 0;
#X connect 1 0 0 0;
#X connect 2 0 0 1;
#X connect 3 0 7 0;
#X connect 4 0 7 1;
#X connect 5 0 87 0;
#X connect 6 0 87 1;
#X connect 7 0 9 0;
#X connect 11 0 17 0;
#X connect 12 0 17 1;
#X connect 13 0 18 0;
#X connect 14 0 18 1;
#X connect 15 0 19 0;
#X connect 16 0 19 1;
#X connect 17 0 30 0;
#X connect 18 0 21 0;
#X connect 19 0 20 0;
#X connect 23 0 25 0;
#X connect 23 1 26 1;
#X connect 24 0 26 0;
#X connect 25 0 27 0;
#X connect 26 0 8 0;
#X connect 27 0 29 0;
#X connect 28 0 24 0;
#X connect 29 0 28 0;
#X connect 30 0 32 0;
#X connect 30 1 33 1;
#X connect 31 0 33 0;
#X connect 32 0 34 0;
#X connect 33 0 22 0;
#X connect 34 0 36 0;
#X connect 35 0 31 0;
#X connect 36 0 35 0;
#X connect 37 0 39 0;
#X connect 37 1 40 1;
#X connect 38 0 40 0;
#X connect 39 0 41 0;
#X connect 40 0 89 0;
#X connect 41 0 88 0;
#X connect 42 0 38 0;
#X connect 43 0 47 0;
#X connect 44 0 47 1;
#X connect 45 0 48 0;
#X connect 46 0 48 1;
#X connect 47 0 67 0;
#X connect 48 0 66 0;
#X connect 49 0 65 0;
#X connect 50 0 56 0;
#X connect 51 0 56 1;
#X connect 52 0 57 0;
#X connect 53 0 57 1;
#X connect 54 0 58 0;
#X connect 55 0 58 1;
#X connect 56 0 64 0;
#X connect 57 0 61 0;
#X connect 58 0 59 0;
#X connect 59 0 60 0;
#X connect 61 0 62 0;
#X connect 63 0 85 0;
#X connect 64 0 63 0;
#X connect 66 0 68 0;
#X connect 67 0 49 0;
#X connect 69 0 75 0;
#X connect 70 0 75 1;
#X connect 71 0 76 0;
#X connect 72 0 76 1;
#X connect 73 0 77 0;
#X connect 74 0 77 1;
#X connect 75 0 79 0;
#X connect 76 0 84 0;
#X connect 77 0 78 0;
#X connect 78 0 80 0;
#X connect 79 0 86 0;
#X connect 84 0 81 0;
#X connect 85 0 83 0;
#X connect 86 0 82 0;
#X connect 87 0 37 0;
#X connect 88 0 42 0;
#X connect 89 0 10 0;
#X restore 389 448 pd drum-timbre-modulations;
#X obj 1322 540 r hh-softness;
#X obj 1332 560 r hh-dirt;
#X obj 1342 580 r hh-size;
#X obj 1486 538 r sn-softness;
#X obj 1496 558 r sn-dirt;
#X obj 1506 578 r sn-size;
#X obj 747 315 s randomize;
#X obj 594 229 bng 43 250 50 0 empty empty empty 17 7 0 10 -262144
-1 -1;
#X obj 747 228 bng 43 250 50 0 empty empty empty 17 7 0 10 -262144
-1 -1;
#X obj 506 352 s fibonacci-beat;
#X obj 747 157 r fibonacci-beat;
#X obj 505 160 r isPlaying;
#N canvas 640 62 1017 766 structure-modulations 0;
#X obj 64 160 select 1;
#X obj 64 66 r fibonacci-beat;
#X obj 92 271 s restart-fibonacci-beat;
#X obj 206 3 r beats-until-change;
#X obj 206 25 t f b;
#X obj 240 81 * 16;
#X obj 220 104 /;
#X obj 224 137 > 1;
#X obj 224 159 sel 1;
#X obj 224 181 bng 15 250 50 0 empty empty empty 17 7 0 10 -262144
-1 -1;
#X obj 347 456 sel 0 1;
#X msg 380 485 1024;
#X obj 282 210 random 12;
#X obj 302 312 +;
#X obj 324 358 i;
#X obj 366 371 * 16;
#X obj 346 394 /;
#X obj 350 427 > 1;
#X obj 366 349 i 64;
#X obj 282 232 t f f b b;
#X msg 472 101 \; bell1-length 5 \; bell1-hits 3 \; bell1-rotation
8;
#X msg 627 99 \; lead1-length 16 \; lead1-hits 1 \; lead1-rotation
0;
#X msg 846 99 \; lead3-length 16 \; lead3-hits 1 \; lead3-rotation
14;
#X msg 735 100 \; lead2-length 16 \; lead2-hits 1 \; lead2-rotation
1;
#X obj 666 40 loadbang;
#X obj 240 59 i 256;
#X msg 348 485 256;
#X obj 606 238 r restart-fibbonaci-beat;
#X obj 605 260 random 12;
#X obj 607 313 sel 1;
#X obj 501 388 decide;
#X obj 501 410 select 0 1;
#X msg 457 486 \; bell1-length 5 \; bell1-hits 3 \; bell1-rotation
8;
#X msg 634 501 \; lead1-length 16 \; lead1-hits 1 \; lead1-rotation
0;
#X msg 853 501 \; lead3-length 16 \; lead3-hits 1 \; lead3-rotation
14;
#X msg 742 502 \; lead2-length 16 \; lead2-hits 1 \; lead2-rotation
1;
#X msg 471 557 \; bell1-length 8 \; bell1-hits 2 \; bell1-rotation
1;
#X obj 749 400 decide;
#X obj 749 422 select 0 1;
#X msg 635 571 \; lead1-length 32 \; lead1-hits 1 \; lead1-rotation
0;
#X msg 743 572 \; lead2-length 32 \; lead2-hits 1 \; lead2-rotation
1;
#X msg 854 571 \; lead3-length 32 \; lead3-hits 1 \; lead3-rotation
14;
#X obj 605 282 > 3;
#X obj 607 335 bng 15 250 50 0 empty empty empty 17 7 0 10 -262144
-1 -1;
#X obj 67 444 r restart-fibonacci-beat;
#X obj 67 471 random 12;
#X obj 67 493 > 3;
#X obj 67 515 sel 1;
#X obj 59 571 random 4;
#X obj 59 593 select 0 1 2 3;
#X obj 53 647 i 32;
#X obj 83 647 i 7;
#X obj 113 647 i 3;
#X obj 143 647 i 2;
#X obj 73 699 s spiral-size;
#X obj 192 561 random 12;
#X obj 192 583 > 3;
#X obj 192 605 sel 1;
#X obj 198 668 select 0 1 2 3;
#X obj 222 722 i 7;
#X obj 198 646 counter 0 4;
#X obj 192 722 i 0;
#X obj 252 722 i 11;
#X obj 282 722 i 14;
#X obj 223 757 s spiral-offset;
#X obj 323 598 random 12;
#X obj 323 620 > 3;
#X obj 323 642 sel 1;
#X obj 382 820 s key;
#X obj 356 707 random 3;
#X obj 356 729 * 7;
#X obj 64 133 random 16;
#X connect 0 0 2 0;
#X connect 1 0 71 0;
#X connect 3 0 4 0;
#X connect 4 0 6 0;
#X connect 4 1 25 0;
#X connect 5 0 6 1;
#X connect 6 0 7 0;
#X connect 7 0 8 0;
#X connect 8 0 2 0;
#X connect 8 0 9 0;
#X connect 9 0 12 0;
#X connect 10 0 26 0;
#X connect 10 1 11 0;
#X connect 11 0 25 1;
#X connect 12 0 19 0;
#X connect 13 0 14 1;
#X connect 14 0 13 1;
#X connect 14 0 16 0;
#X connect 15 0 16 1;
#X connect 16 0 17 0;
#X connect 17 0 10 0;
#X connect 18 0 15 0;
#X connect 19 1 13 0;
#X connect 19 2 14 0;
#X connect 19 3 18 0;
#X connect 24 0 20 0;
#X connect 24 0 21 0;
#X connect 24 0 23 0;
#X connect 24 0 22 0;
#X connect 25 0 5 0;
#X connect 26 0 25 1;
#X connect 27 0 28 0;
#X connect 28 0 42 0;
#X connect 29 0 43 0;
#X connect 30 0 31 0;
#X connect 31 0 32 0;
#X connect 31 1 36 0;
#X connect 37 0 38 0;
#X connect 38 0 33 0;
#X connect 38 0 35 0;
#X connect 38 0 34 0;
#X connect 38 1 39 0;
#X connect 38 1 40 0;
#X connect 38 1 41 0;
#X connect 42 0 29 0;
#X connect 43 0 30 0;
#X connect 43 0 37 0;
#X connect 44 0 45 0;
#X connect 45 0 46 0;
#X connect 46 0 47 0;
#X connect 47 0 48 0;
#X connect 47 0 55 0;
#X connect 48 0 49 0;
#X connect 49 0 50 0;
#X connect 49 1 51 0;
#X connect 49 2 52 0;
#X connect 49 3 53 0;
#X connect 50 0 54 0;
#X connect 51 0 54 0;
#X connect 52 0 54 0;
#X connect 53 0 54 0;
#X connect 55 0 56 0;
#X connect 56 0 57 0;
#X connect 57 0 60 0;
#X connect 57 0 65 0;
#X connect 58 0 61 0;
#X connect 58 1 59 0;
#X connect 58 2 62 0;
#X connect 58 3 63 0;
#X connect 59 0 64 0;
#X connect 60 0 58 0;
#X connect 61 0 64 0;
#X connect 62 0 64 0;
#X connect 63 0 64 0;
#X connect 65 0 66 0;
#X connect 66 0 67 0;
#X connect 67 0 69 0;
#X connect 69 0 70 0;
#X connect 70 0 68 0;
#X connect 71 0 0 0;
#X restore 389 398 pd structure-modulations;
#X obj 594 157 r restart-fibonacci-beat;
#X obj 1333 157 r count;
#X obj 787 775 euclidean-generator bz1;
#X obj 925 1832 fm-spectral-bass06-07-2018~;
#X obj 925 1993 output~;
#X obj 828 931 t b b;
#X obj 926 1787 pack;
#X obj 925 1765 makenote 100 100;
#X obj 926 1591 % 12;
#X obj 925 1563 * 7;
#X obj 882 1167 + 8;
#X obj 897 1101 r randomize;
#X obj 897 1123 random 12;
#X obj 882 1072 random 4;
#X obj 927 1022 r randomize;
#X obj 925 873 select 1;
#X obj 925 1536 % 7;
#X obj 897 1145 * 5;
#X obj 949 838 decide;
#X obj 831 1248 r randomize;
#X obj 831 1271 random 12;
#X obj 837 1391 abs;
#X obj 1218 1406 abs;
#X obj 1265 1359 + 8;
#X obj 1265 1334 random 4;
#X obj 1378 1309 + 8;
#X obj 1378 1285 random 4;
#X obj 927 1051 random 32;
#X obj 1048 902 r randomize;
#X obj 1048 949 blur-control-stream 300 60 100;
#X obj 837 1367 +;
#X obj 1048 925 random-ramp 14 2400;
#X obj 837 1508 +;
#X obj 990 1219 r bz-index;
#X obj 1077 1004 r count;
#X obj 1077 1026 euclidean-generator bz1-c1;
#X obj 1069 1148 r randomize;
#X obj 1069 1170 random 12;
#X obj 975 1241 +;
#X obj 1218 1431 + 150;
#X obj 1282 1147 r randomize;
#X obj 1281 1169 random 12;
#X obj 1188 1245 +;
#X obj 1203 1222 r bz-center;
#X obj 1725 951 r count;
#X obj 1508 1575 fm-spectral-lead06-07-2018~;
#X obj 1508 1748 output~;
#X obj 837 1543 s bass-note;
#X obj 1638 1268 r bass-note;
#X obj 1627 1295 +;
#X obj 1507 1535 pack;
#X obj 1507 1469 % 12;
#X obj 1506 1441 * 7;
#X obj 1506 1414 % 7;
#X obj 1506 1513 makenote 100 2400;
#X obj 1507 1491 + 48;
#X obj 1826 1571 fm-spectral-lead06-07-2018~;
#X obj 1825 1391 +;
#X obj 1826 1534 pack;
#X obj 1826 1468 % 12;
#X obj 1825 1440 * 7;
#X obj 1825 1413 % 7;
#X obj 1825 1512 makenote 100 2400;
#X obj 1798 1265 i 3;
#X obj 1826 1489 + 60;
#X obj 1826 1742 output~;
#X obj 877 1328 decide;
#X obj 877 1350 gate;
#X obj 1647 950 r randomize;
#X obj 1657 1012 gate;
#X obj 1657 990 decide;
#X obj 2093 1386 +;
#X obj 2095 1532 pack;
#X obj 2095 1466 % 12;
#X obj 2094 1438 * 7;
#X obj 2094 1411 % 7;
#X obj 2094 1510 makenote 100 2400;
#X obj 2095 1487 + 60;
#X obj 2095 1569 fm-spectral-lead06-07-2018~;
#X obj 2096 1742 output~;
#X obj 2067 1263 i 9;
#X obj 1555 1257 i 1;
#X obj 1593 1199 random 3;
#X obj 975 1192 control-oscillator 1 1 0;
#X obj 1187 1192 control-oscillator 1 1 0;
#X obj 737 1294 control-oscillator 1 1 0;
#X obj 784 1191 control-oscillator 1 32 0;
#X obj 1218 1382 control-oscillator 1 1 0;
#X obj 1327 1334 control-oscillator 8 300 0;
#N canvas 292 386 1529 544 euclid-rhythm-randomization 0;
#X obj 145 192 randomize-euclid-generator bd 16;
#X obj 175 212 randomize-euclid-generator hh 16;
#X obj 195 232 randomize-euclid-generator sn 16;
#X obj 215 252 randomize-euclid-generator bz1 16;
#X obj 192 61 r randomize;
#X obj 555 162 randomize-euclid-generator bz1-c1 16;
#X obj 539 54 r randomize;
#X obj 235 272 randomize-euclid-generator rd 16 32;
#X connect 4 0 0 0;
#X connect 4 0 3 0;
#X connect 4 0 2 0;
#X connect 4 0 1 0;
#X connect 4 0 7 0;
#X connect 6 0 5 0;
#X restore 389 423 pd euclid-rhythm-randomization;
#X obj 1090 1244 r randomize;
#X obj 1090 1266 random 12;
#X obj 996 1375 +;
#X obj 1011 1353 r bz-envelope;
#X obj 1637 761 output~;
#X obj 1613 538 r rd-softness;
#X obj 1623 558 r rd-dirt;
#X obj 1633 578 r rd-size;
#X obj 1620 609 ride06-06-2018~;
#X obj 1619 264 euclidean-generator rd;
#X obj 762 1416 r randomize;
#X obj 833 1473 +;
#X obj 762 1438 random 7;
#X obj 1846 1204 r randomize;
#X obj 1846 1226 random 7;
#X obj 1593 1221 - 1;
#X obj 1593 1243 +;
#X obj 1846 1248 * 5;
#X obj 1090 1288 + 3;
#X obj 2166 1461 random-ramp 40 1200;
#X obj 1896 1449 random-ramp 40 1200;
#X obj 1648 1487 random-ramp 40 1200;
#X obj 836 1669 gate;
#X obj 820 1609 r randomize;
#X obj 831 1638 decide;
#X obj 1589 1426 random-ramp 40 1200;
#X obj 475 1271 control-oscillator 1 32 0;
#X obj 478 1812 output~;
#X obj 462 1561 pack;
#X obj 462 1495 % 12;
#X obj 461 1467 * 7;
#X obj 461 1443 % 7;
#X obj 462 1517 + 48;
#X obj 524 1124 bng 43 250 50 0 empty empty empty 17 7 0 10 -262144
-1 -1;
#X obj 524 1210 fibonacci-beat-generator;
#X obj 423 1000 euclidean-generator bell1;
#X obj 423 1087 t b b;
#X obj 495 933 r count;
#X obj 440 1305 i;
#X obj 584 1048 r randomize;
#X obj 853 182 % 256;
#X obj 853 157 r count;
#X obj 853 278 s reset;
#X obj 853 204 sel 0;
#X obj 522 1093 r reset;
#X floatatom 440 1410 5 0 0 0 - - -, f 5;
#X obj 447 1382 + 32;
#X obj 375 1446 s spiral-note;
#X obj 876 1453 r spiral-note;
#X obj 853 226 bng 45 250 50 0 empty empty empty 17 7 0 10 -262144
-1 -1;
#X obj 647 351 s beats-until-change;
#X obj 506 318 fibonacci-beat-generator;
#X obj 1554 1065 euclidean-generator lead1;
#X obj 1790 1066 euclidean-generator lead2;
#X obj 2059 1064 euclidean-generator lead3;
#X floatatom 485 1302 5 0 0 0 - - -, f 5;
#X obj 584 1070 decide;
#X obj 584 1092 sel 1;
#X floatatom 1871 2064 0 0 100 0 - - -;
#X obj 1824 2173 output~;
#N canvas 43 53 958 610 reverb 0;
#X obj 13 19 inlet~;
#X obj 13 43 reverb-echo echo-del1 5.43216;
#X obj 277 215 +~;
#X obj 319 215 +~;
#X obj 67 276 outlet~;
#X obj 137 276 outlet~;
#X obj 238 334 +~;
#X obj 347 335 +~;
#X obj 280 334 -~;
#X obj 387 334 -~;
#X obj 237 390 +~;
#X obj 281 391 +~;
#X obj 325 392 -~;
#X obj 364 392 -~;
#X obj 324 474 *~ 0;
#X obj 282 473 *~ 0;
#X obj 237 472 *~ 0;
#X obj 365 475 *~ 0;
#X obj 632 365 inlet;
#X obj 632 437 / 200;
#X obj 632 389 min 100;
#X obj 632 412 max 0;
#X obj 238 583 delwrite~ loop-del1 60;
#X obj 283 561 delwrite~ loop-del2 71.9345;
#X obj 364 515 delwrite~ loop-del4 95.945;
#X obj 298 154 delread~ loop-del1 60;
#X obj 340 179 delread~ loop-del2 71.9345;
#X obj 408 233 delread~ loop-del4 95.945;
#X obj 386 208 delread~ loop-del3 86.7545;
#X obj 325 538 delwrite~ loop-del3 86.7545;
#X obj 13 67 reverb-echo echo-del2 8.45346;
#X obj 13 91 reverb-echo echo-del3 13.4367;
#X obj 13 115 reverb-echo echo-del4 21.5463;
#X obj 13 139 reverb-echo echo-del5 34.3876;
#X obj 13 163 reverb-echo echo-del6 55.5437;
#X text 286 42 "early echo" generators \, which also increase echo
density. Open one to see what they do.;
#X text 300 115 Get the outputs of the recirculating delays. Add the
inputs to two of them.;
#X text 420 313 Do a power-conserving mix of them in pairs. First combine
(1 \, 2) and (3 \, 4)...;
#X text 402 385 ...then (1 \, 3) and (2 \, 4);
#X text 446 469 The two mixing stages have a combined gain of 2 \,
so the recirculation gain is limited to 0.5.;
#X text 586 542 Put the signals back into the;
#X text 584 557 recirculating delays.;
#X text 29 296 Tap outputs from here.;
#X text 708 381 0 to 100 to control reverb;
#X text 719 396 time.;
#X text 691 364 feedback gain on a scale of;
#X connect 1 0 30 0;
#X connect 1 1 30 1;
#X connect 2 0 4 0;
#X connect 2 0 6 0;
#X connect 2 0 8 0;
#X connect 3 0 5 0;
#X connect 3 0 6 1;
#X connect 3 0 8 1;
#X connect 6 0 10 0;
#X connect 6 0 12 0;
#X connect 7 0 12 1;
#X connect 7 0 10 1;
#X connect 8 0 11 0;
#X connect 8 0 13 0;
#X connect 9 0 11 1;
#X connect 9 0 13 1;
#X connect 10 0 16 0;
#X connect 11 0 15 0;
#X connect 12 0 14 0;
#X connect 13 0 17 0;
#X connect 14 0 29 0;
#X connect 15 0 23 0;
#X connect 16 0 22 0;
#X connect 17 0 24 0;
#X connect 18 0 20 0;
#X connect 19 0 17 1;
#X connect 19 0 16 1;
#X connect 19 0 15 1;
#X connect 19 0 14 1;
#X connect 20 0 21 0;
#X connect 21 0 19 0;
#X connect 25 0 2 1;
#X connect 26 0 3 1;
#X connect 27 0 7 1;
#X connect 27 0 9 1;
#X connect 28 0 7 0;
#X connect 28 0 9 0;
#X connect 30 0 31 0;
#X connect 30 1 31 1;
#X connect 31 0 32 0;
#X connect 31 1 32 1;
#X connect 32 0 33 0;
#X connect 32 1 33 1;
#X connect 33 0 34 0;
#X connect 33 1 34 1;
#X connect 34 0 2 0;
#X connect 34 1 3 0;
#X restore 1812 2142 pd reverb;
#X floatatom 1458 2069 0 0 120 0 - - -;
#X text 1499 2069 level \, dB;
#X floatatom 1502 2093 0 0 100 0 - - -;
#X text 1543 2093 liveness \, 0-100;
#X floatatom 1546 2119 0 0 120 0 - - -;
#X floatatom 1590 2143 0 0 120 0 - - -;
#X text 1577 2119 crossover frequency \, Hz.;
#X text 1623 2144 HF damping \, percent;
#X obj 1415 2174 rev2~ 100 90 3000 20;
#X obj 1415 2209 output~;
#X obj 1969 2075 loadbang;
#X obj 1969 2097 i 27;
#X obj 1565 2003 loadbang;
#X obj 1554 2054 i 40;
#X obj 1608 2042 i 82;
#X obj 1644 2091 i 82;
#X obj 1676 1358 random-ramp 24 1200;
#X obj 1456 2048 i 96;
#X obj 926 1613 + 24;
#X obj 1154 183 decide;
#X obj 1167 221 gate;
#X obj 1152 155 r randomize;
#X obj 1240 182 decide;
#X obj 1253 220 gate;
#X obj 1238 154 r randomize;
#X obj 1447 196 decide;
#X obj 1460 234 gate;
#X obj 1445 168 r randomize;
#X obj 423 976 gate;
#X obj 421 932 r randomize;
#X obj 422 955 decide;
#X obj 1052 1392 r randomize;
#X obj 1052 1415 random-ramp 14 2400;
#X obj 1047 1485 *;
#X obj 1013 1407 abs;
#X obj 1052 1437 / 14;
#X obj 996 1326 control-oscillator 3 127 0;
#X obj 1113 1717 r randomize;
#X obj 1113 1740 random-ramp 14 2400;
#X obj 1113 1762 / 14;
#X obj 1113 1784 * 100;
#X obj 1113 1807 + 20;
#X obj 1006 1494 / 10;
#X obj 675 1210 r spiral-size;
#X obj 657 1276 r reset;
#X floatatom 675 1232 5 0 0 0 - - -, f 5;
#X obj 447 1334 +;
#X obj 486 1349 r spiral-offset;
#X floatatom 1230 788 5 0 0 0 - - -, f 5;
#X floatatom 1376 805 5 0 0 0 - - -, f 5;
#X floatatom 1543 804 5 0 0 0 - - -, f 5;
#X floatatom 1693 802 5 0 0 0 - - -, f 5;
#X floatatom 1880 2219 5 0 0 0 - - -, f 5;
#X floatatom 1565 1793 5 0 0 0 - - -, f 5;
#X floatatom 1880 1786 5 0 0 0 - - -, f 5;
#X floatatom 2151 1787 5 0 0 0 - - -, f 5;
#X floatatom 981 2038 5 0 0 0 - - -, f 5;
#X floatatom 1485 2254 5 0 0 0 - - -, f 5;
#X floatatom 533 1857 5 0 0 0 - - -, f 5;
#X msg 1359 1601 \; lead1-level 0.092 \; lead2-level 0.074 \; lead3-level
0.092;
#X obj 1630 1742 r lead1-level;
#X obj 1930 1742 r lead2-level;
#X obj 2200 1742 r lead3-level;
#X obj 1358 1578 loadbang;
#X obj 647 1506 loadbang;
#X obj 568 1788 r spiral-lead-level;
#X obj 1537 2203 r verb2-level;
#X obj 1537 2229 loadbang;
#X msg 1538 2252 \; verb2-level 0.068;
#X obj 1788 722 loadbang;
#X obj 1221 710 r bd-level;
#X obj 1378 725 r hh-level;
#X obj 1536 728 r sn-level;
#X obj 1686 728 r ride-level;
#X obj 1890 2141 r verb-level;
#X floatatom 486 1371 5 0 0 0 - - -, f 5;
#X obj 1326 381 sel 0 1;
#X obj 846 1853 noteout;
#X obj 848 1828 pack 0 0 1;
#X obj 1736 1603 noteout;
#X obj 1738 1578 pack 0 0 2;
#X obj 381 1630 noteout;
#X obj 383 1605 pack 0 0 3;
#X obj 1160 1936 loadbang;
#X msg 1161 1959 \; bass-level 0.512;
#X obj 1040 1999 r bass-level;
#X obj 1930 1862 throw~ reverb-send2;
#X obj 1391 2111 catch~ reverb-send2;
#X obj 508 1894 throw~ reverb-send2;
#X msg 1788 745 \; bd-level 0.441 \; hh-level 0.328 \; sn-level 0.148
\; ride-level 0.086 \; verb-level 0.021;
#X obj 1412 878 throw~ reverb-send1;
#X obj 507 1422 random 3;
#X obj 506 1448 sel 0 1 2;
#X obj 461 1539 makenote 100 500;
#X msg 499 1487 500;
#X msg 534 1484 600;
#X msg 569 1484 1200;
#X obj 463 1601 fm-spectral-lead206-07-2018~;
#X msg 623 1554 100;
#X msg 590 1546 2;
#X obj 584 1387 random-ramp 40 600;
#X obj 604 1411 random-ramp 40 600;
#X obj 608 1437 random-ramp 80 600;
#X obj 1295 878 dac~ 3 4 5 6;
#X obj 1860 1865 dac~ 7 8;
#X obj 442 1895 dac~ 9 10;
#X obj 921 2063 dac~ 11 12;
#X obj 1401 2257 dac~ 13 14;
#X obj 1813 2253 dac~ 13 14;
#N canvas 710 340 450 300 clock 0;
#X obj 76 104 counter;
#X obj 76 -19 r isPlaying;
#X obj 76 129 s count;
#X obj 76 56 counter;
#X obj 162 4 loadbang;
#X obj 162 48 / 4;
#X obj 197 -148 r randomize;
#X obj 197 -30 t b f;
#X obj 197 -52 + 1;
#X obj 197 -126 random 2;
#X obj 197 -82 / 2;
#X obj 197 -104 * 3;
#X obj 162 26 i 4;
#X obj 76 4 metro 150;
#X obj 104 32 r reset;
#X obj 76 80 calculate-euclidean-beat 2 4 0;
#X connect 0 0 2 0;
#X connect 1 0 13 0;
#X connect 3 0 15 0;
#X connect 4 0 12 0;
#X connect 5 0 15 1;
#X connect 6 0 9 0;
#X connect 7 0 12 0;
#X connect 7 1 5 1;
#X connect 8 0 7 0;
#X connect 9 0 11 0;
#X connect 10 0 8 0;
#X connect 11 0 10 0;
#X connect 12 0 5 0;
#X connect 13 0 3 0;
#X connect 14 0 3 2;
#X connect 15 0 0 0;
#X restore 389 374 pd clock;
#X obj 594 277 i 1;
#X obj 1810 2118 catch~ reverb-send1;
#X obj 524 1179 i 1;
#X msg 653 1618 \; spiral-lead-level 0.088;
#X obj 1176 442 makenote 100 150;
#X obj 1176 464 pack 0 0 10;
#X obj 1185 489 noteout;
#X obj 1176 412 i 36;
#X obj 1326 441 makenote 100 150;
#X obj 1326 463 pack 0 0 10;
#X obj 1335 488 noteout;
#X obj 1326 411 i 44;
#X obj 1360 411 i 46;
#X obj 1468 439 makenote 100 150;
#X obj 1468 461 pack 0 0 10;
#X obj 1477 486 noteout;
#X obj 1468 409 i 37;
#X obj 1620 437 makenote 100 150;
#X obj 1620 459 pack 0 0 10;
#X obj 1629 484 noteout;
#X obj 1620 410 i 48;
#X obj 1593 1171 r randomize;
#X obj 388 487 declare -path library;
#X connect 0 0 46 0;
#X connect 0 0 296 0;
#X connect 0 1 30 0;
#X connect 1 0 9 0;
#X connect 2 0 46 0;
#X connect 2 0 305 0;
#X connect 4 0 269 0;
#X connect 4 0 282 0;
#X connect 4 2 227 0;
#X connect 5 0 8 0;
#X connect 5 0 8 1;
#X connect 6 0 7 0;
#X connect 6 0 7 1;
#X connect 7 0 269 0;
#X connect 7 0 282 1;
#X connect 7 2 228 0;
#X connect 8 0 269 0;
#X connect 8 0 282 2;
#X connect 8 2 229 0;
#X connect 9 0 6 4;
#X connect 9 0 255 0;
#X connect 10 0 4 0;
#X connect 10 0 4 1;
#X connect 11 0 10 1;
#X connect 12 0 10 2;
#X connect 13 0 10 3;
#X connect 15 0 6 1;
#X connect 16 0 6 2;
#X connect 17 0 6 3;
#X connect 18 0 5 1;
#X connect 19 0 5 2;
#X connect 20 0 5 3;
#X connect 22 0 289 0;
#X connect 23 0 21 0;
#X connect 25 0 23 0;
#X connect 26 0 169 0;
#X connect 28 0 22 0;
#X connect 29 0 127 0;
#X connect 29 0 199 1;
#X connect 29 0 202 1;
#X connect 29 0 205 1;
#X connect 30 0 33 0;
#X connect 31 0 32 0;
#X connect 31 0 32 1;
#X connect 32 0 285 0;
#X connect 32 1 285 1;
#X connect 32 2 235 0;
#X connect 33 0 113 0;
#X connect 33 0 114 0;
#X connect 33 0 116 0;
#X connect 33 1 41 0;
#X connect 33 1 52 0;
#X connect 33 1 54 0;
#X connect 34 0 31 0;
#X connect 34 0 257 0;
#X connect 35 0 34 0;
#X connect 35 1 34 1;
#X connect 36 0 197 0;
#X connect 37 0 36 0;
#X connect 38 0 114 2;
#X connect 39 0 40 0;
#X connect 40 0 45 0;
#X connect 41 0 38 0;
#X connect 42 0 55 0;
#X connect 43 0 33 0;
#X connect 44 0 37 0;
#X connect 45 0 38 1;
#X connect 46 0 43 0;
#X connect 47 0 48 0;
#X connect 47 0 94 0;
#X connect 48 0 113 2;
#X connect 49 0 129 0;
#X connect 50 0 67 0;
#X connect 51 0 115 1;
#X connect 52 0 51 0;
#X connect 53 0 116 1;
#X connect 54 0 53 0;
#X connect 55 0 41 1;
#X connect 56 0 59 0;
#X connect 57 0 95 1;
#X connect 58 0 49 0;
#X connect 59 0 57 0;
#X connect 60 0 44 0;
#X connect 60 0 75 0;
#X connect 61 0 66 1;
#X connect 62 0 63 0;
#X connect 63 0 111 0;
#X connect 63 0 112 0;
#X connect 63 0 115 0;
#X connect 63 0 215 0;
#X connect 64 0 65 0;
#X connect 65 0 111 2;
#X connect 66 0 31 1;
#X connect 67 0 35 2;
#X connect 68 0 69 0;
#X connect 69 0 112 2;
#X connect 70 0 31 2;
#X connect 71 0 70 1;
#X connect 72 0 97 1;
#X connect 73 0 74 0;
#X connect 73 0 74 1;
#X connect 74 0 265 0;
#X connect 74 0 283 0;
#X connect 74 1 283 1;
#X connect 74 2 232 0;
#X connect 76 0 77 1;
#X connect 77 0 81 0;
#X connect 77 0 85 1;
#X connect 77 0 99 1;
#X connect 78 0 73 0;
#X connect 78 0 259 0;
#X connect 79 0 83 0;
#X connect 80 0 79 0;
#X connect 81 0 80 0;
#X connect 82 0 78 0;
#X connect 82 1 78 1;
#X connect 83 0 82 0;
#X connect 84 0 93 0;
#X connect 84 0 93 1;
#X connect 85 0 89 0;
#X connect 86 0 84 0;
#X connect 86 0 259 0;
#X connect 87 0 92 0;
#X connect 88 0 87 0;
#X connect 89 0 88 0;
#X connect 90 0 86 0;
#X connect 90 1 86 1;
#X connect 91 0 85 0;
#X connect 92 0 90 0;
#X connect 93 0 265 0;
#X connect 93 0 283 0;
#X connect 93 1 283 1;
#X connect 93 2 233 0;
#X connect 94 0 95 0;
#X connect 95 0 58 1;
#X connect 96 0 98 0;
#X connect 97 0 170 0;
#X connect 97 0 171 0;
#X connect 97 0 172 0;
#X connect 98 0 97 0;
#X connect 99 0 103 0;
#X connect 100 0 106 0;
#X connect 100 0 259 0;
#X connect 101 0 105 0;
#X connect 102 0 101 0;
#X connect 103 0 102 0;
#X connect 104 0 100 0;
#X connect 104 1 100 1;
#X connect 105 0 104 0;
#X connect 106 0 107 0;
#X connect 106 0 107 1;
#X connect 107 0 265 0;
#X connect 107 0 283 0;
#X connect 107 1 283 1;
#X connect 107 2 234 0;
#X connect 108 0 99 0;
#X connect 109 0 77 0;
#X connect 110 0 133 0;
#X connect 111 0 66 0;
#X connect 112 0 70 0;
#X connect 113 0 58 0;
#X connect 114 0 113 1;
#X connect 115 0 50 0;
#X connect 116 0 115 2;
#X connect 118 0 119 0;
#X connect 119 0 136 0;
#X connect 120 0 213 0;
#X connect 120 0 221 0;
#X connect 121 0 120 1;
#X connect 122 0 269 0;
#X connect 122 0 282 3;
#X connect 122 2 230 0;
#X connect 123 0 126 1;
#X connect 124 0 126 2;
#X connect 125 0 126 3;
#X connect 126 0 122 0;
#X connect 126 0 122 1;
#X connect 127 0 309 0;
#X connect 128 0 130 0;
#X connect 129 0 60 0;
#X connect 130 0 129 1;
#X connect 131 0 132 0;
#X connect 132 0 135 0;
#X connect 133 0 134 0;
#X connect 134 0 109 1;
#X connect 135 0 134 1;
#X connect 136 0 215 1;
#X connect 137 0 106 2;
#X connect 138 0 84 2;
#X connect 139 0 73 2;
#X connect 140 0 35 0;
#X connect 141 0 142 0;
#X connect 142 0 140 0;
#X connect 143 0 73 1;
#X connect 143 0 84 1;
#X connect 143 0 106 1;
#X connect 144 0 156 1;
#X connect 144 0 173 0;
#X connect 145 0 267 0;
#X connect 145 0 284 0;
#X connect 145 1 284 1;
#X connect 145 2 237 0;
#X connect 146 0 261 0;
#X connect 146 0 276 0;
#X connect 147 0 150 0;
#X connect 148 0 147 0;
#X connect 149 0 148 0;
#X connect 150 0 272 0;
#X connect 151 0 291 0;
#X connect 152 0 144 0;
#X connect 152 0 279 0;
#X connect 152 0 280 0;
#X connect 152 0 281 0;
#X connect 152 1 144 1;
#X connect 153 0 154 0;
#X connect 154 0 156 0;
#X connect 154 1 270 0;
#X connect 155 0 207 1;
#X connect 156 0 225 0;
#X connect 157 0 174 0;
#X connect 158 0 161 0;
#X connect 159 0 158 0;
#X connect 161 0 167 0;
#X connect 162 0 151 0;
#X connect 164 0 149 0;
#X connect 164 0 163 0;
#X connect 164 0 165 0;
#X connect 166 0 60 1;
#X connect 167 0 160 0;
#X connect 169 0 24 0;
#X connect 169 1 168 0;
#X connect 170 0 109 0;
#X connect 170 0 139 0;
#X connect 170 0 143 0;
#X connect 170 0 195 0;
#X connect 171 0 91 0;
#X connect 171 0 138 0;
#X connect 171 0 195 0;
#X connect 172 0 108 0;
#X connect 172 0 137 0;
#X connect 172 0 195 0;
#X connect 174 0 175 0;
#X connect 175 0 151 0;
#X connect 176 0 178 1;
#X connect 177 0 287 0;
#X connect 177 1 287 1;
#X connect 177 2 231 0;
#X connect 178 0 177 0;
#X connect 178 1 177 1;
#X connect 179 0 187 1;
#X connect 181 0 187 2;
#X connect 183 0 187 3;
#X connect 184 0 187 4;
#X connect 187 0 188 0;
#X connect 187 1 188 1;
#X connect 188 0 286 0;
#X connect 188 1 286 1;
#X connect 188 2 236 0;
#X connect 189 0 190 0;
#X connect 190 0 176 0;
#X connect 191 0 192 0;
#X connect 191 0 193 0;
#X connect 191 0 194 0;
#X connect 191 0 196 0;
#X connect 192 0 181 0;
#X connect 193 0 183 0;
#X connect 194 0 184 0;
#X connect 195 0 73 3;
#X connect 195 0 84 3;
#X connect 195 0 106 3;
#X connect 196 0 179 0;
#X connect 197 0 140 1;
#X connect 198 0 199 0;
#X connect 199 0 0 0;
#X connect 200 0 198 0;
#X connect 201 0 202 0;
#X connect 202 0 1 0;
#X connect 203 0 201 0;
#X connect 204 0 205 0;
#X connect 205 0 2 0;
#X connect 206 0 204 0;
#X connect 207 0 153 0;
#X connect 208 0 209 0;
#X connect 209 0 207 0;
#X connect 210 0 211 0;
#X connect 211 0 214 0;
#X connect 212 0 31 4;
#X connect 213 0 212 1;
#X connect 214 0 212 0;
#X connect 215 0 120 0;
#X connect 216 0 217 0;
#X connect 217 0 218 0;
#X connect 218 0 219 0;
#X connect 219 0 220 0;
#X connect 220 0 31 6;
#X connect 221 0 31 3;
#X connect 222 0 224 0;
#X connect 223 0 144 3;
#X connect 224 0 144 2;
#X connect 225 0 164 0;
#X connect 226 0 254 0;
#X connect 239 0 74 2;
#X connect 240 0 93 2;
#X connect 241 0 107 2;
#X connect 242 0 238 0;
#X connect 243 0 292 0;
#X connect 243 0 277 0;
#X connect 243 0 278 0;
#X connect 244 0 145 2;
#X connect 245 0 188 2;
#X connect 246 0 247 0;
#X connect 248 0 268 0;
#X connect 249 0 4 2;
#X connect 250 0 7 2;
#X connect 251 0 8 2;
#X connect 252 0 122 2;
#X connect 253 0 177 2;
#X connect 254 0 225 1;
#X connect 255 0 300 0;
#X connect 255 1 301 0;
#X connect 257 0 256 0;
#X connect 259 0 258 0;
#X connect 261 0 260 0;
#X connect 262 0 263 0;
#X connect 264 0 32 2;
#X connect 266 0 187 0;
#X connect 270 0 271 0;
#X connect 271 0 273 0;
#X connect 271 1 274 0;
#X connect 271 2 275 0;
#X connect 272 0 146 0;
#X connect 272 1 146 1;
#X connect 273 0 272 2;
#X connect 274 0 272 2;
#X connect 275 0 272 2;
#X connect 276 0 145 0;
#X connect 276 1 145 1;
#X connect 277 0 276 6;
#X connect 278 0 276 5;
#X connect 279 0 276 3;
#X connect 280 0 276 1;
#X connect 281 0 276 2;
#X connect 289 0 169 0;
#X connect 290 0 178 0;
#X connect 291 0 152 0;
#X connect 293 0 294 0;
#X connect 293 1 294 1;
#X connect 294 0 295 0;
#X connect 294 0 10 0;
#X connect 296 0 293 0;
#X connect 297 0 298 0;
#X connect 297 1 298 1;
#X connect 298 0 299 0;
#X connect 298 0 6 0;
#X connect 300 0 297 0;
#X connect 301 0 297 0;
#X connect 302 0 303 0;
#X connect 302 1 303 1;
#X connect 303 0 304 0;
#X connect 303 0 5 0;
#X connect 305 0 302 0;
#X connect 306 0 307 0;
#X connect 306 1 307 1;
#X connect 307 0 308 0;
#X connect 307 0 126 0;
#X connect 309 0 306 0;
#X connect 310 0 110 0;
