#N canvas 472 126 1337 654 10;
#X declare -path library;
#X obj 177 205 counter;
#X obj 177 176 metro 100;
#X obj 177 146 tgl 15 0 empty isPlaying start 17 7 0 10 -262144 -1
-1 0 1;
#X obj 177 805 i 36;
#X obj 177 847 makenote 100 100;
#X obj 177 869 pack;
#X obj 177 891 noteout;
#X obj 337 805 i 37;
#X obj 507 805 i 38;
#X obj 382 256 % 32;
#X obj 1132 256 % 64;
#X floatatom 726 347 5 0 0 0 hits-center sn-hits-center -, f 5;
#X floatatom 726 367 5 0 0 0 hits-varience sn-hits-varience -, f 5
;
#X obj 636 491 s sn-hits;
#X obj 1132 278 sel 47;
#X obj 636 418 * 2;
#X obj 636 462 + 1;
#X obj 636 440 % 3;
#X obj 1083 278 sel 0;
#X msg 1054 364 \; bd-hits-center 4 \; bd-hits-varience 10 \; bd-length
16 \; bd-rotation 0 \; hh-hits-center 4 \; hh-hits-varience 10 \; hh-length
16 \; hh-rotation 2 \; sn-hits-center 3 \; sn-hits-varience 3 \; sn-length
16 \; sn-rotation 4 \; isPlaying 1;
#X obj 178 639 counter;
#X obj 636 396 random-from-center;
#X obj 338 720 euclidean-generator sn;
#X obj 507 720 euclidean-generator hh;
#X obj 178 720 euclidean-generator bd;
#X obj 236 337 random-euclidean-modulator bd;
#X obj 426 337 random-euclidean-modulator hh;
#X obj 236 407 random-euclidean-modulator m1;
#X obj 451 1039 output~;
#X obj 791 947 snare-drum02-02-2018~;
#X obj 620 948 high-hat02-02-2018~;
#X obj 616 1067 output~;
#X obj 811 1067 output~;
#X obj 466 947 kick06-06-2018~;
#X obj 1134 953 loadbang;
#X obj 1134 975 f 0.7;
#X obj 337 837 makenote 100 100;
#X obj 337 859 pack;
#X obj 337 881 noteout;
#X obj 507 837 makenote 100 100;
#X obj 507 859 pack;
#X obj 507 881 noteout;
#X obj 382 278 sel 24;
#X msg 911 355 \; bd-hits-center 4 \; bd-hits-varience 5 \; bd-length
16 \; bd-rotation 0 \; hh-hits-center 4 \; hh-hits-varience 5 \; hh-length
16 \; hh-rotation 2 \; sn-hits-center 2 \; sn-hits-varience 2 \; sn-length
16 \; sn-rotation 4 \; m1-hits-center 9 \; m1-hits-varience 2 \; m1-length
16 \; m1-rotation 0 \; isPlaying 1;
#X obj 172 513 euclidean-generator m1;
#X obj 13 154 declare -path library;
#X connect 0 0 9 0;
#X connect 0 0 10 0;
#X connect 0 0 44 0;
#X connect 1 0 0 0;
#X connect 2 0 1 0;
#X connect 3 0 4 0;
#X connect 4 0 5 0;
#X connect 4 1 5 1;
#X connect 5 0 6 0;
#X connect 5 0 33 0;
#X connect 7 0 36 0;
#X connect 8 0 39 0;
#X connect 9 0 42 0;
#X connect 10 0 14 0;
#X connect 10 0 18 0;
#X connect 11 0 21 1;
#X connect 12 0 21 2;
#X connect 14 0 19 0;
#X connect 15 0 17 0;
#X connect 16 0 13 0;
#X connect 17 0 16 0;
#X connect 18 0 43 0;
#X connect 20 0 22 0;
#X connect 20 0 23 0;
#X connect 20 0 24 0;
#X connect 21 0 15 0;
#X connect 22 0 7 0;
#X connect 23 0 8 0;
#X connect 24 0 3 0;
#X connect 29 0 32 0;
#X connect 29 0 32 1;
#X connect 30 0 31 0;
#X connect 30 0 31 1;
#X connect 33 0 28 0;
#X connect 33 0 28 1;
#X connect 34 0 35 0;
#X connect 35 0 32 2;
#X connect 35 0 31 2;
#X connect 35 0 28 2;
#X connect 36 0 37 0;
#X connect 36 1 37 1;
#X connect 37 0 38 0;
#X connect 37 0 29 0;
#X connect 39 0 40 0;
#X connect 39 1 40 1;
#X connect 40 0 41 0;
#X connect 40 0 30 0;
#X connect 42 0 27 0;
#X connect 42 0 25 0;
#X connect 42 0 26 0;
#X connect 42 0 21 0;
#X connect 44 0 20 0;
