#N canvas 319 53 1337 654 10;
#X declare -path library;
#X obj 177 783 calculate-euclidean-beat;
#X obj 177 205 counter;
#X floatatom 294 693 5 0 0 0 hits bd-hits -, f 5;
#X floatatom 294 713 5 0 0 0 length bd-length -, f 5;
#X floatatom 294 733 5 0 0 0 rotation bd-rotation -, f 5;
#X obj 177 176 metro 100;
#X obj 177 146 tgl 15 0 empty isPlaying start 17 7 0 10 -262144 -1
-1 0 1;
#X obj 177 805 i 36;
#X obj 177 857 makenote 100 100;
#X obj 177 879 pack;
#X obj 177 1101 noteout;
#X obj 337 783 calculate-euclidean-beat;
#X floatatom 454 693 5 0 0 0 hits sn-hits -, f 5;
#X floatatom 454 713 5 0 0 0 length sn-length -, f 5;
#X floatatom 454 733 5 0 0 0 rotation sn-rotation -, f 5;
#X obj 337 805 i 37;
#X obj 500 776 calculate-euclidean-beat;
#X floatatom 624 693 5 0 0 0 hits hh-hits -, f 5;
#X floatatom 624 713 5 0 0 0 length hh-length -, f 5;
#X floatatom 624 733 5 0 0 0 rotation hh-rotation -, f 5;
#X obj 507 805 i 38;
#X obj 327 394 s bd-hits;
#X obj 382 256 % 32;
#X obj 466 390 s hh-hits;
#X obj 1132 256 % 64;
#X floatatom 416 317 5 0 0 0 hits-center bd-hits-center -, f 5;
#X floatatom 416 337 5 0 0 0 hits-varience bd-hits-varience -, f 5
;
#N canvas 710 340 450 300 random-from-center 0;
#X obj 52 163 random;
#X obj 52 185 -;
#X obj 135 159 / 2;
#X obj 52 208 +;
#X obj 52 32 inlet;
#X text 52 54 bang for random mod;
#X obj 182 32 inlet;
#X text 182 54 center of modulation;
#X obj 312 32 inlet;
#X text 312 54 varience of modulation;
#X obj 52 280 outlet;
#X connect 0 0 1 0;
#X connect 1 0 3 0;
#X connect 2 0 1 1;
#X connect 3 0 10 0;
#X connect 4 0 0 0;
#X connect 6 0 3 1;
#X connect 8 0 2 0;
#X connect 8 0 0 1;
#X restore 326 366 pd random-from-center;
#X floatatom 556 317 5 0 0 0 hits-center hh-hits-center -, f 5;
#X floatatom 556 337 5 0 0 0 hits-varience hh-hits-varience -, f 5
;
#N canvas 710 340 450 300 random-from-center 0;
#X obj 52 163 random;
#X obj 52 185 -;
#X obj 135 159 / 2;
#X obj 52 208 +;
#X obj 52 32 inlet;
#X text 52 54 bang for random mod;
#X obj 182 32 inlet;
#X text 182 54 center of modulation;
#X obj 312 32 inlet;
#X text 312 54 varience of modulation;
#X obj 52 230 outlet;
#X connect 0 0 1 0;
#X connect 1 0 3 0;
#X connect 2 0 1 1;
#X connect 3 0 10 0;
#X connect 4 0 0 0;
#X connect 6 0 3 1;
#X connect 8 0 2 0;
#X connect 8 0 0 1;
#X restore 466 366 pd random-from-center;
#X floatatom 696 317 5 0 0 0 hits-center sn-hits-center -, f 5;
#X floatatom 696 337 5 0 0 0 hits-varience sn-hits-varience -, f 5
;
#N canvas 710 340 450 300 random-from-center 0;
#X obj 52 163 random;
#X obj 52 185 -;
#X obj 135 159 / 2;
#X obj 52 208 +;
#X obj 52 32 inlet;
#X text 52 54 bang for random mod;
#X obj 182 32 inlet;
#X text 182 54 center of modulation;
#X obj 312 32 inlet;
#X text 312 54 varience of modulation;
#X obj 52 230 outlet;
#X connect 0 0 1 0;
#X connect 1 0 3 0;
#X connect 2 0 1 1;
#X connect 3 0 10 0;
#X connect 4 0 0 0;
#X connect 6 0 3 1;
#X connect 8 0 2 0;
#X connect 8 0 0 1;
#X restore 606 366 pd random-from-center;
#X obj 606 461 s sn-hits;
#X obj 382 278 sel 31;
#X obj 1132 278 sel 47;
#X obj 606 388 * 2;
#X obj 606 432 + 1;
#X obj 606 410 % 3;
#X obj 1083 278 sel 0;
#X msg 1054 364 \; bd-hits-center 4 \; bd-hits-varience 10 \; bd-length
16 \; bd-rotation 0 \; hh-hits-center 4 \; hh-hits-varience 10 \; hh-length
16 \; hh-rotation 2 \; sn-hits-center 3 \; sn-hits-varience 3 \; sn-length
16 \; sn-rotation 4 \; isPlaying 1;
#X obj 456 1127 output~;
#X obj 781 945 snare-drum02-02-2018~;
#X obj 610 946 high-hat02-02-2018~;
#X obj 610 1130 output~;
#X obj 781 1132 output~;
#X obj 456 945 kick06-06-2018~;
#X obj 1143 1015 loadbang;
#X obj 1143 1037 f 0.7;
#X obj 337 857 makenote 100 100;
#X obj 337 879 pack;
#X obj 507 857 makenote 100 100;
#X obj 507 879 pack;
#X msg 911 355 \; bd-hits-center 4 \; bd-hits-varience 1 \; bd-length
16 \; bd-rotation 0 \; hh-hits-center 4 \; hh-hits-varience 1 \; hh-length
16 \; hh-rotation 2 \; sn-hits-center 2 \; sn-hits-varience 1 \; sn-length
16 \; sn-rotation 4 \; isPlaying 1;
#X obj 18 153 declare -path library;
#X connect 0 0 7 0;
#X connect 1 0 0 0;
#X connect 1 0 11 0;
#X connect 1 0 16 0;
#X connect 1 0 22 0;
#X connect 1 0 24 0;
#X connect 2 0 0 1;
#X connect 3 0 0 2;
#X connect 4 0 0 3;
#X connect 5 0 1 0;
#X connect 6 0 5 0;
#X connect 7 0 8 0;
#X connect 8 0 9 0;
#X connect 8 1 9 1;
#X connect 9 0 10 0;
#X connect 9 0 47 0;
#X connect 11 0 15 0;
#X connect 12 0 11 1;
#X connect 13 0 11 2;
#X connect 14 0 11 3;
#X connect 15 0 50 0;
#X connect 16 0 20 0;
#X connect 17 0 16 1;
#X connect 18 0 16 2;
#X connect 19 0 16 3;
#X connect 20 0 52 0;
#X connect 22 0 35 0;
#X connect 22 0 40 0;
#X connect 24 0 36 0;
#X connect 24 0 40 0;
#X connect 25 0 27 1;
#X connect 26 0 27 2;
#X connect 27 0 21 0;
#X connect 28 0 30 1;
#X connect 29 0 30 2;
#X connect 30 0 23 0;
#X connect 31 0 33 1;
#X connect 32 0 33 2;
#X connect 33 0 37 0;
#X connect 35 0 27 0;
#X connect 35 0 30 0;
#X connect 35 0 33 0;
#X connect 36 0 41 0;
#X connect 37 0 39 0;
#X connect 38 0 34 0;
#X connect 39 0 38 0;
#X connect 40 0 54 0;
#X connect 43 0 46 0;
#X connect 43 0 46 1;
#X connect 44 0 45 0;
#X connect 44 0 45 1;
#X connect 47 0 42 0;
#X connect 47 0 42 1;
#X connect 48 0 49 0;
#X connect 49 0 46 2;
#X connect 49 0 45 2;
#X connect 49 0 42 2;
#X connect 50 0 51 0;
#X connect 50 1 51 1;
#X connect 51 0 43 0;
#X connect 52 0 53 0;
#X connect 52 1 53 1;
#X connect 53 0 44 0;
