#N canvas 437 19 1337 654 10;
#X declare -path library;
#X obj 177 333 calculate-euclidean-beat;
#X obj 177 205 counter;
#X floatatom 294 243 5 0 0 0 hits bd-hits -, f 5;
#X floatatom 294 263 5 0 0 0 length bd-length -, f 5;
#X floatatom 294 283 5 0 0 0 rotation bd-rotation -, f 5;
#X obj 177 176 metro 100;
#X obj 177 148 tgl 15 0 empty isPlaying start 17 7 0 10 -262144 -1
-1 0 1;
#X obj 177 355 i 36;
#X obj 177 397 makenote 100 100;
#X obj 177 419 pack;
#X obj 177 441 noteout;
#X obj 337 333 calculate-euclidean-beat;
#X floatatom 454 243 5 0 0 0 hits sn-hits -, f 5;
#X floatatom 454 263 5 0 0 0 length sn-length -, f 5;
#X floatatom 454 283 5 0 0 0 rotation sn-rotation -, f 5;
#X obj 337 355 i 37;
#X obj 507 333 calculate-euclidean-beat;
#X floatatom 624 243 5 0 0 0 hits hh-hits -, f 5;
#X floatatom 624 263 5 0 0 0 length hh-length -, f 5;
#X floatatom 624 283 5 0 0 0 rotation hh-rotation -, f 5;
#X obj 507 355 i 38;
#X msg 930 157 \; bd-hits 4 \; bd-length 16 \; bd-rotation 0 \; hh-hits
4 \; hh-length 16 \; hh-rotation 2 \; sn-hits 2 \; sn-length 16 \;
sn-rotation 4 \; isPlaying 1;
#X msg 1040 157 \; bd-hits 3 \; bd-length 16 \; bd-rotation 0 \; hh-hits
4 \; hh-length 16 \; hh-rotation 2 \; sn-hits 2 \; sn-length 16 \;
sn-rotation 4 \; isPlaying 1;
#X msg 1150 157 \; bd-hits 2 \; bd-length 11 \; bd-rotation 0 \; hh-hits
15 \; hh-length 24 \; hh-rotation 4 \; sn-hits 2 \; sn-length 22 \;
sn-rotation 5 \; isPlaying 1;
#X obj 302 510 snare-drum02-02-2018~;
#X obj 304 603 output~;
#X obj 474 558 loadbang;
#X obj 474 580 f 0.7;
#X obj 533 602 output~;
#X obj 703 557 loadbang;
#X obj 703 579 f 0.7;
#X obj 68 599 output~;
#X obj 238 554 loadbang;
#X obj 238 576 f 0.7;
#X obj 65 506 kick06-06-2018~;
#X obj 530 468 high-hat02-02-2018~;
#X obj 337 397 makenote 100 100;
#X obj 337 419 pack;
#X obj 507 397 makenote 100 100;
#X obj 507 419 pack;
#X obj 337 441 noteout;
#X obj 507 441 noteout;
#X text 909 118 click one of these:;
#X obj 23 25 declare -path library;
#X connect 0 0 7 0;
#X connect 1 0 0 0;
#X connect 1 0 11 0;
#X connect 1 0 16 0;
#X connect 2 0 0 1;
#X connect 3 0 0 2;
#X connect 4 0 0 3;
#X connect 5 0 1 0;
#X connect 6 0 5 0;
#X connect 7 0 8 0;
#X connect 8 0 9 0;
#X connect 8 1 9 1;
#X connect 9 0 10 0;
#X connect 9 0 34 0;
#X connect 11 0 15 0;
#X connect 12 0 11 1;
#X connect 13 0 11 2;
#X connect 14 0 11 3;
#X connect 15 0 36 0;
#X connect 16 0 20 0;
#X connect 17 0 16 1;
#X connect 18 0 16 2;
#X connect 19 0 16 3;
#X connect 20 0 38 0;
#X connect 24 0 25 0;
#X connect 24 0 25 1;
#X connect 26 0 27 0;
#X connect 27 0 25 2;
#X connect 29 0 30 0;
#X connect 30 0 28 2;
#X connect 32 0 33 0;
#X connect 33 0 31 2;
#X connect 34 0 31 0;
#X connect 34 0 31 1;
#X connect 35 0 28 0;
#X connect 35 0 28 1;
#X connect 36 0 37 0;
#X connect 36 1 37 1;
#X connect 37 0 24 0;
#X connect 37 0 40 0;
#X connect 38 0 39 0;
#X connect 38 1 39 1;
#X connect 39 0 35 0;
