#N struct rectangle float x float y float w float h float color;
#N canvas 256 170 1337 654 10;
#X declare -path library;
#X obj 177 333 calculate-euclidean-beat;
#X obj 177 205 counter;
#X floatatom 294 243 5 0 0 0 hits hits -, f 5;
#X floatatom 294 263 5 0 0 0 length length -, f 5;
#X floatatom 294 283 5 0 0 0 rotation rotation -, f 5;
#X obj 177 176 metro 100;
#X obj 177 148 tgl 15 0 empty isPlaying start 17 7 0 10 -262144 -1
-1 0 1;
#N canvas 1063 42 450 300 rect 0;
#X obj 215 49 r this-ptr;
#X obj 46 98 s this-ptr;
#X obj 46 54 r add-rect;
#X obj 48 -13 struct rectangle float x float y float w float h float
color;
#X obj 46 76 append rectangle x y w h color;
#X obj 46 9 filledpolygon color 0 0 0 0 0 h w h w 0 0 0;
#X connect 0 0 4 5;
#X connect 2 0 4 0;
#X connect 4 0 1 0;
#X restore 505 280 pd rect;
#N canvas 35 815 1524 163 output 1;
#X scalar rectangle 0 50 50 50 999 \;;
#X scalar rectangle 50 50 50 50 999 \;;
#X scalar rectangle 100 50 50 50 999 \;;
#X scalar rectangle 150 50 50 50 999 \;;
#X scalar rectangle 200 50 50 50 999 \;;
#X scalar rectangle 250 50 50 50 999 \;;
#X scalar rectangle 300 50 50 50 999 \;;
#X scalar rectangle 350 50 50 50 999 \;;
#X scalar rectangle 0 50 50 50 3 \;;
#X coords 0 0 1 1 985 589 0;
#X restore 505 337 pd output;
#N canvas 1033 42 699 763 genertor 0;
#X obj 719 10 r start;
#X obj 718 77 pointer;
#X obj 719 33 symbol;
#X obj 718 98 s this-ptr;
#X msg 718 55 traverse \$1 \, bang;
#X obj 675 147 print;
#X msg 280 361 \; pd-output clear;
#X msg 265 402 \; start pd-output;
#X obj 451 278 r hits;
#X obj 501 278 r length;
#X obj 561 278 r rotation;
#X obj 206 411 until;
#X obj 236 437 + 1;
#X obj 206 437 i;
#X obj 206 388 i;
#X obj 205 556 calculate-euclidean-beat;
#X obj 206 459 t a a;
#X obj 218 629 i;
#X obj 238 294 t b b b 0;
#X obj 437 478 until;
#X obj 467 504 + 1;
#X obj 437 504 i;
#X obj 437 455 i;
#X obj 223 332 t b b;
#X obj 246 589 * 50;
#X obj 415 568 * 50;
#X msg 415 630 \; add-rect \$1 50 50 50 999;
#X msg 207 721 \; add-rect \$1 50 50 50 3;
#X obj 238 199 r draw-beat-graph;
#X obj 501 278 r length;
#X obj 599 449 s draw-beat-graph;
#X floatatom 624 349 5 0 0 0 - - -, f 5;
#X obj 600 375 bng 15 250 50 0 empty empty empty 17 7 0 10 -262144
-1 -1;
#X obj 599 427 del 250;
#X connect 0 0 2 0;
#X connect 1 0 3 0;
#X connect 2 0 4 0;
#X connect 4 0 1 0;
#X connect 4 0 5 0;
#X connect 8 0 32 0;
#X connect 8 0 15 1;
#X connect 9 0 14 1;
#X connect 9 0 22 1;
#X connect 9 0 32 0;
#X connect 9 0 15 2;
#X connect 10 0 31 0;
#X connect 10 0 32 0;
#X connect 10 0 15 3;
#X connect 11 0 13 0;
#X connect 12 0 13 1;
#X connect 13 0 12 0;
#X connect 13 0 16 0;
#X connect 14 0 11 0;
#X connect 15 0 17 0;
#X connect 16 0 15 0;
#X connect 16 1 24 0;
#X connect 17 0 27 0;
#X connect 18 0 23 0;
#X connect 18 1 7 0;
#X connect 18 2 6 0;
#X connect 18 3 13 1;
#X connect 18 3 21 1;
#X connect 19 0 21 0;
#X connect 20 0 21 1;
#X connect 21 0 20 0;
#X connect 21 0 25 0;
#X connect 22 0 19 0;
#X connect 23 0 14 0;
#X connect 23 1 22 0;
#X connect 24 0 17 1;
#X connect 25 0 26 0;
#X connect 28 0 18 0;
#X connect 29 0 32 0;
#X connect 32 0 33 0;
#X connect 33 0 30 0;
#X restore 504 307 pd genertor;
#X obj 177 377 makenote 100 100;
#X obj 177 399 pack;
#X obj 177 421 noteout;
#X msg 785 93 \; hits 1 \; length 8 \; rotation 0 \; isPlaying 1;
#X msg 785 173 \; hits 2 \; length 8 \; rotation 0 \; isPlaying 1;
#X msg 785 253 \; hits 3 \; length 8 \; rotation 0 \; isPlaying 1;
#X msg 785 338 \; hits 4 \; length 8 \; rotation 0 \; isPlaying 1;
#X obj 177 355 i 37;
#X msg 885 253 \; hits 3 \; length 8 \; rotation 2 \; isPlaying 1;
#X msg 886 173 \; hits 2 \; length 8 \; rotation 3 \; isPlaying 1;
#X obj 264 427 snare-drum02-02-2018~;
#X obj 266 520 output~;
#X obj 436 475 loadbang;
#X obj 436 497 f 0.7;
#X obj 30 19 declare -path library;
#X connect 0 0 17 0;
#X connect 1 0 0 0;
#X connect 2 0 0 1;
#X connect 3 0 0 2;
#X connect 4 0 0 3;
#X connect 5 0 1 0;
#X connect 6 0 5 0;
#X connect 10 0 11 0;
#X connect 10 1 11 1;
#X connect 11 0 12 0;
#X connect 11 0 20 0;
#X connect 17 0 10 0;
#X connect 20 0 21 0;
#X connect 20 0 21 1;
#X connect 22 0 23 0;
#X connect 23 0 21 2;
