#N canvas 251 102 934 827 10;
#X obj 448 352 *~;
#X obj 448 569 tanh~;
#X obj 414 -237 bng 60 250 50 0 play-drum empty empty 17 7 0 10 -262144
-1 -1;
#X floatatom 462 460 5 0 0 0 - - -, f 5;
#X floatatom 502 460 5 0 0 0 - - -, f 5;
#X obj 462 434 unpack;
#X obj 462 387 loadbang;
#X obj 448 487 bob~;
#X msg 462 411 300 2;
#X obj 448 542 *~ 2;
#X floatatom 184 115 5 0 127 0 softness #0-set-softness #0-softness
, f 5;
#X floatatom 184 135 5 0 127 0 dirt #0-set-dirt #0-dirt, f 5;
#X floatatom 184 155 5 0 127 0 size #0-set-size #0-size, f 5;
#X obj 512 -80 / 127;
#X obj 512 -28 + 5;
#X obj 512 -58 * 25;
#X obj 795 -153 loadbang;
#X obj 552 -54 / 127;
#X obj 552 -76 r \$0-size;
#X obj 552 -32 * 250;
#X obj 690 396 / 127;
#X obj 690 448 + 1.05;
#X obj 690 374 r \$0-dirt;
#X obj 617 151 / 127;
#X obj 617 174 * 8;
#X obj 617 203 + 1.05;
#X obj 617 129 r \$0-dirt;
#X obj 599 234 *~;
#X obj 606 -34 / 127;
#X obj 606 -56 r \$0-size;
#X obj 606 -12 * 150;
#X obj 528 360 / 127;
#X obj 528 402 * 300;
#X obj 528 426 + 78;
#X obj 606 18 + 33;
#X obj 552 -2 + 25;
#X obj 690 418 * 6;
#X obj 528 381 expr 1-$f1;
#X obj 512 -102 r \$0-softness;
#X obj 567 318 r \$0-softness;
#X obj 598 360 / 127;
#X obj 599 427 + 1;
#N canvas 1144 128 754 562 envelope~ 0;
#X obj 397 859 *~;
#X obj 397 837 *~;
#X obj 317 158 inlet;
#X obj 509 239 inlet;
#X obj 559 265 inlet;
#X obj 613 295 inlet;
#X obj 397 881 outlet~;
#X obj 265 371 f;
#X obj 305 371 f;
#X obj 335 371 f;
#X obj 254 290 t b b b, f 12;
#X obj 316 495 +;
#X obj 286 455 + 4;
#X obj 254 420 t a a;
#X obj 233 725 vline~;
#X msg 180 641 0.95 \$1 4;
#X msg 555 642 0 4 0;
#X obj 260 645 pack 0.95 75 11;
#X obj 176 555 t b b a;
#X obj 380 645 pack 0 50 86;
#X obj 481 835 delay;
#X obj 349 521 +;
#X obj 519 996 outlet;
#X connect 0 0 6 0;
#X connect 1 0 0 0;
#X connect 1 0 0 1;
#X connect 2 0 10 0;
#X connect 3 0 7 1;
#X connect 4 0 8 0;
#X connect 5 0 9 0;
#X connect 7 0 13 0;
#X connect 8 0 11 1;
#X connect 8 0 17 1;
#X connect 9 0 19 1;
#X connect 9 0 21 1;
#X connect 10 0 7 0;
#X connect 10 1 8 0;
#X connect 10 2 9 0;
#X connect 10 2 16 0;
#X connect 11 0 19 2;
#X connect 11 0 21 0;
#X connect 12 0 11 0;
#X connect 12 0 17 2;
#X connect 13 0 18 0;
#X connect 13 1 12 0;
#X connect 14 0 1 0;
#X connect 14 0 1 1;
#X connect 15 0 14 0;
#X connect 16 0 14 0;
#X connect 17 0 14 0;
#X connect 18 0 19 0;
#X connect 18 0 20 0;
#X connect 18 1 17 0;
#X connect 18 2 15 0;
#X connect 19 0 14 0;
#X connect 20 0 22 0;
#X connect 21 0 20 1;
#X restore 506 89 pd envelope~;
#N canvas 960 27 960 982 oscillator~ 0;
#X obj 455 573 osc~;
#X text 493 137 drum vibration - tone;
#X obj 250 299 inlet;
#X obj 346 704 outlet~;
#X obj 596 507 delay 50;
#X msg 651 532 100 100;
#X obj 651 489 delay 75;
#X obj 361 336 / 127;
#X obj 361 358 * 2500;
#X obj 361 388 + 2500;
#X obj 357 448 f 2500;
#X obj 553 326 / 127;
#X obj 553 304 r \$0-size;
#X obj 553 378 + 15;
#X obj 553 348 * 50;
#X msg 596 550 65 75;
#X obj 536 487 delay 10;
#X msg 520 580 75 \$1;
#X obj 536 509 f 15;
#X obj 455 549 vline~;
#X obj 361 314 r \$0-softness;
#X obj 425 414 * 10;
#X obj 425 439 + 10;
#X obj 416 475 pack;
#X obj 405 338 expr 1 - $f1;
#X msg 456 510 \$1 \, 0 \$2;
#X obj 425 369 pow 8;
#X connect 0 0 3 0;
#X connect 2 0 10 0;
#X connect 2 0 16 0;
#X connect 4 0 15 0;
#X connect 4 0 6 0;
#X connect 5 0 0 0;
#X connect 6 0 5 0;
#X connect 7 0 8 0;
#X connect 7 0 24 0;
#X connect 8 0 9 0;
#X connect 9 0 10 1;
#X connect 10 0 23 0;
#X connect 11 0 14 0;
#X connect 12 0 11 0;
#X connect 13 0 4 1;
#X connect 13 0 18 1;
#X connect 14 0 13 0;
#X connect 15 0 19 0;
#X connect 16 0 4 0;
#X connect 16 0 18 0;
#X connect 17 0 19 0;
#X connect 18 0 17 0;
#X connect 19 0 0 0;
#X connect 20 0 7 0;
#X connect 21 0 22 0;
#X connect 22 0 23 1;
#X connect 23 0 25 0;
#X connect 24 0 26 0;
#X connect 25 0 19 0;
#X connect 26 0 21 0;
#X coords 0 0 1 1 97 21 0;
#X restore 388 90 pd oscillator~;
#N canvas 960 27 960 982 transient~ 0;
#X text 387 202 transient - noise;
#X obj 344 465 *~;
#X obj 374 441 *~;
#X obj 374 419 *~;
#X obj 373 378 line~;
#X obj 371 227 inlet;
#X obj 342 515 outlet~;
#X obj 341 204 pink~;
#X msg 371 259 1 \, 0 100;
#X connect 1 0 6 0;
#X connect 2 0 1 1;
#X connect 3 0 2 0;
#X connect 3 0 2 1;
#X connect 4 0 3 0;
#X connect 4 0 3 1;
#X connect 5 0 8 0;
#X connect 7 0 1 0;
#X connect 8 0 4 0;
#X coords 0 0 1 1 175 125 0;
#X restore 599 90 pd transient~;
#X obj 380 -23 t b b b;
#X obj 430 -300 inlet;
#X obj 615 601 outlet~;
#X obj 370 522 hip~ 20;
#X msg 795 -131 \; \$0-set-softness 7 \; \$0-set-size 22 \; \$0-set-dirt
22;
#X obj 594 -294 inlet;
#X obj 594 -272 s \$0-set-softness;
#X obj 704 -294 inlet;
#X obj 794 -294 inlet;
#X obj 793 -272 s \$0-set-size;
#X obj 704 -272 s \$0-set-dirt;
#X connect 0 0 7 0;
#X connect 1 0 47 0;
#X connect 2 0 45 0;
#X connect 3 0 7 1;
#X connect 4 0 7 2;
#X connect 5 0 3 0;
#X connect 5 1 4 0;
#X connect 6 0 8 0;
#X connect 7 0 48 0;
#X connect 8 0 5 0;
#X connect 9 0 1 0;
#X connect 13 0 15 0;
#X connect 14 0 42 1;
#X connect 15 0 14 0;
#X connect 16 0 49 0;
#X connect 17 0 19 0;
#X connect 18 0 17 0;
#X connect 19 0 35 0;
#X connect 20 0 36 0;
#X connect 21 0 9 1;
#X connect 22 0 20 0;
#X connect 23 0 24 0;
#X connect 24 0 25 0;
#X connect 25 0 27 1;
#X connect 26 0 23 0;
#X connect 27 0 0 0;
#X connect 28 0 30 0;
#X connect 29 0 28 0;
#X connect 30 0 34 0;
#X connect 31 0 37 0;
#X connect 32 0 33 0;
#X connect 33 0 3 0;
#X connect 34 0 42 3;
#X connect 35 0 42 2;
#X connect 36 0 21 0;
#X connect 37 0 32 0;
#X connect 38 0 13 0;
#X connect 39 0 31 0;
#X connect 39 0 40 0;
#X connect 40 0 41 0;
#X connect 41 0 4 0;
#X connect 42 0 0 1;
#X connect 43 0 0 0;
#X connect 44 0 27 0;
#X connect 45 0 42 0;
#X connect 45 1 44 0;
#X connect 45 2 43 0;
#X connect 46 0 2 0;
#X connect 48 0 9 0;
#X connect 50 0 51 0;
#X connect 52 0 55 0;
#X connect 53 0 54 0;
#X coords 0 -1 1 1 124 77 1 100 100;
