#N canvas 379 283 547 418 10;
#X obj 280 60 inlet;
#X obj 317 61 inlet;
#X obj 359 60 inlet;
#X obj 281 90 s \$0-rate;
#X obj 290 138 s \$0-depth;
#X obj 308 173 s \$0-slew;
#X obj 74 110 inlet;
#X obj 78 319 outlet;
#X obj 74 149 t b f;
#X obj 72 264 line;
#X obj 74 171 decide;
#X obj 78 291 +;
#X obj 74 194 metro 100;
#X obj 74 238 pack f 100;
#X obj 74 216 random 50;
#X obj 150 153 r \$0-rate;
#X obj 200 213 r \$0-slew;
#X obj 170 183 r \$0-depth;
#X obj 272 9 f \$1;
#X obj 322 9 f \$2;
#X obj 362 9 f \$3;
#X obj 294 -36 loadbang;
#X connect 0 0 3 0;
#X connect 1 0 4 0;
#X connect 2 0 5 0;
#X connect 6 0 8 0;
#X connect 8 0 10 0;
#X connect 8 1 11 1;
#X connect 9 0 11 0;
#X connect 10 0 12 0;
#X connect 11 0 7 0;
#X connect 12 0 14 0;
#X connect 13 0 9 0;
#X connect 14 0 13 0;
#X connect 15 0 12 1;
#X connect 16 0 13 1;
#X connect 17 0 14 1;
#X connect 18 0 3 0;
#X connect 19 0 4 0;
#X connect 20 0 5 0;
#X connect 21 0 18 0;
#X connect 21 0 19 0;
#X connect 21 0 20 0;
