#N canvas 0 27 1920 982 10;
#X obj 358 196 inlet;
#X text 558 218 rotation;
#X text 478 218 length;
#X text 418 218 hits;
#X obj 358 259 +;
#X obj 358 292 *;
#X obj 359 343 %;
#X text 358 218 count;
#X obj 359 437 sel 1;
#X obj 359 459 outlet;
#X text 359 481 euclidean beat pattern;
#X obj 359 395 < 0;
#X text 399 417 if calculation returns 1 then output a bang;
#X obj 550 460 outlet;
#X text 550 482 unused counts (the beats where the pattern is not playing)
;
#X obj 683 180 i \$1;
#X obj 723 180 i \$2;
#X obj 763 180 i \$3;
#X obj 704 101 loadbang;
#X obj 668 146 inlet;
#X obj 728 146 inlet;
#X obj 788 146 inlet;
#X obj 418 196 r \$0-hits;
#X obj 478 196 r \$0-length;
#X obj 558 196 r \$0-rotation;
#X obj 669 223 s \$0-hits;
#X obj 729 223 s \$0-length;
#X obj 809 223 s \$0-rotation;
#X connect 0 0 4 0;
#X connect 4 0 5 0;
#X connect 5 0 6 0;
#X connect 6 0 11 0;
#X connect 8 0 9 0;
#X connect 8 1 13 0;
#X connect 11 0 8 0;
#X connect 15 0 25 0;
#X connect 16 0 26 0;
#X connect 17 0 27 0;
#X connect 18 0 15 0;
#X connect 18 0 17 0;
#X connect 18 0 16 0;
#X connect 19 0 25 0;
#X connect 20 0 26 0;
#X connect 21 0 27 0;
#X connect 22 0 5 1;
#X connect 22 0 11 1;
#X connect 23 0 6 1;
#X connect 24 0 4 1;
