#N canvas 1029 236 606 515 10;
#X obj 85 282 sin;
#X obj 75 182 counter;
#X obj 75 204 % 128;
#X obj 75 226 / 128;
#X obj 85 304 *;
#X obj 85 258 * 1;
#X obj 75 21 inlet;
#X obj 120 21 inlet;
#X obj 85 339 outlet;
#X obj 166 184 r \$0-frequency-multiplier;
#X obj 176 214 r \$0-amplitude;
#X obj 103 127 r \$0-phase-reset;
#X obj 103 149 % 128;
#X obj 120 43 s \$0-frequency-multiplier;
#X obj 280 21 inlet;
#X obj 280 43 s \$0-amplitude;
#X obj 380 21 inlet;
#X obj 380 43 s \$0-phase-reset;
#X obj 250 -130 loadbang;
#X obj 222 -73 i \$1;
#X obj 262 -73 i \$2;
#X obj 312 -73 i \$3;
#X connect 0 0 4 0;
#X connect 1 0 2 0;
#X connect 2 0 3 0;
#X connect 3 0 5 0;
#X connect 4 0 8 0;
#X connect 5 0 0 0;
#X connect 6 0 1 0;
#X connect 7 0 13 0;
#X connect 9 0 5 1;
#X connect 10 0 4 1;
#X connect 11 0 12 0;
#X connect 12 0 1 2;
#X connect 14 0 15 0;
#X connect 16 0 17 0;
#X connect 18 0 19 0;
#X connect 18 0 21 0;
#X connect 18 0 20 0;
#X connect 19 0 13 0;
#X connect 20 0 15 0;
#X connect 21 0 17 0;
