#N canvas 106 339 625 433 10;
#X obj 84 211 calculate-euclidean-beat;
#X floatatom 201 121 5 0 0 0 hits #1-hits -, f 5;
#X floatatom 201 141 5 0 0 0 length #1-length -, f 5;
#X floatatom 201 161 5 0 0 0 rotation #1-rotation -, f 5;
#X obj 84 77 inlet;
#X text 84 99 count in;
#X obj 84 303 outlet;
#X text 83 325 beat out;
#X text 203 58 takes in one argument for the name of the voice;
#X obj 234 303 outlet;
#X text 233 325 count of unused beats out;
#X connect 0 0 6 0;
#X connect 0 1 9 0;
#X connect 1 0 0 1;
#X connect 2 0 0 2;
#X connect 3 0 0 3;
#X connect 4 0 0 0;
#X coords 0 -1 1 1 136 80 1 100 100;
