#N canvas 710 340 450 300 10;
#X obj 119 -64 counter;
#X obj 111 10 delay;
#X obj 52 -112 t b b;
#X obj 117 -234 bng 15 250 50 0 empty empty empty 17 7 0 10 -262144
-1 -1;
#X obj 111 37 bng 15 250 50 0 empty empty empty 17 7 0 10 -262144 -1
-1;
#X obj 119 -209 t b b;
#X obj 117 -258 inlet;
#X obj 41 70 outlet;
#X obj 189 68 outlet;
#X obj 119 -35 get-nth-fibonacci-number;
#X connect 0 0 9 0;
#X connect 1 0 2 0;
#X connect 1 0 4 0;
#X connect 2 0 1 0;
#X connect 2 1 0 0;
#X connect 3 0 5 0;
#X connect 4 0 7 0;
#X connect 5 0 2 0;
#X connect 5 1 0 2;
#X connect 6 0 3 0;
#X connect 9 0 1 1;
#X connect 9 0 8 0;
