#N canvas 692 33 700 545 10;
#X obj 118 -85 counter;
#X obj 111 60 delay;
#X obj 52 -62 t b b;
#X obj 111 87 bng 15 250 50 0 empty empty empty 17 7 0 10 -262144 -1
-1;
#X obj 117 -258 inlet;
#X obj 41 120 outlet;
#X obj 189 118 outlet;
#X obj 119 15 get-nth-fibonacci-number;
#X obj 165 -215 sel 1 0;
#X obj 35 21 gate;
#X obj 209 -120 i 0;
#X obj 176 -122 i 1;
#X floatatom 117 -236 5 0 0 0 - - -, f 5;
#X obj 119 -159 t b b b;
#X floatatom 191 63 5 0 0 0 - - -, f 5;
#X connect 0 0 7 0;
#X connect 1 0 2 0;
#X connect 1 0 3 0;
#X connect 2 0 9 1;
#X connect 2 1 0 0;
#X connect 3 0 5 0;
#X connect 4 0 8 0;
#X connect 4 0 12 0;
#X connect 7 0 1 1;
#X connect 7 0 6 0;
#X connect 7 0 14 0;
#X connect 8 0 13 0;
#X connect 8 1 10 0;
#X connect 9 0 1 0;
#X connect 10 0 9 0;
#X connect 11 0 9 0;
#X connect 13 0 2 0;
#X connect 13 1 0 2;
#X connect 13 2 11 0;
