#N canvas 0 27 1920 982 10;
#X obj 92 -65 inlet;
#X text 90 -93 int for nth number;
#X obj 97 164 until;
#X obj 112 65 i 0;
#X obj 111 195 i 1;
#X obj 124 265 +;
#X obj 161 155 i 1;
#X obj 126 413 outlet;
#X obj 172 317 counter;
#X obj 172 339 select 0;
#X obj 172 361 i;
#X obj 194 155 i 0;
#X obj 159 85 + 1;
#X obj 112 119 t f b;
#X obj 109 217 t f f;
#X obj 124 288 t f f;
#X obj 87 28 select 0;
#X obj 100 -22 abs;
#X obj 66 161 i 1;
#X connect 0 0 17 0;
#X connect 2 0 4 0;
#X connect 3 0 12 0;
#X connect 3 0 13 0;
#X connect 3 0 9 1;
#X connect 4 0 14 0;
#X connect 5 0 15 0;
#X connect 6 0 4 1;
#X connect 8 0 9 0;
#X connect 9 0 10 0;
#X connect 10 0 7 0;
#X connect 11 0 5 1;
#X connect 11 0 8 2;
#X connect 13 0 2 0;
#X connect 13 1 6 0;
#X connect 13 1 11 0;
#X connect 14 0 5 1;
#X connect 14 1 5 0;
#X connect 15 0 4 1;
#X connect 15 0 8 0;
#X connect 15 1 10 1;
#X connect 16 0 18 0;
#X connect 16 1 3 0;
#X connect 17 0 16 0;
#X connect 18 0 7 0;
