#N canvas 385 48 990 816 10;
#X obj 304 324 tanh~;
#X obj 174 -377 bng 60 250 50 0 play-drum empty empty 17 7 0 10 -262144
-1 -1;
#X floatatom 836 -227 5 0 127 0 softness #0-set-softness #0-softness
, f 5;
#X floatatom 836 -207 5 0 127 0 dirt #0-set-dirt #0-dirt, f 5;
#X floatatom 836 -187 5 0 127 0 size #0-set-size #0-size, f 5;
#X obj 382 -350 / 127;
#X obj 382 -328 * 25;
#X obj 665 -423 loadbang;
#X obj 422 -324 / 127;
#X obj 560 126 / 127;
#X obj 560 178 + 1.05;
#X obj 560 104 r \$0-dirt;
#X obj 476 -396 r \$0-size;
#X obj 397 67 / 127;
#X obj 560 148 * 6;
#X obj 382 -442 r \$0-softness;
#X obj 438 18 r \$0-softness;
#X obj 178 -553 inlet;
#X obj 369 416 outlet~;
#X msg 665 -401 \; \$0-set-softness 7 \; \$0-set-size 22 \; \$0-set-dirt
34;
#X obj 430 -557 inlet;
#X obj 430 -535 s \$0-set-softness;
#X obj 540 -557 inlet;
#X obj 630 -557 inlet;
#X obj 629 -535 s \$0-set-size;
#X obj 540 -535 s \$0-set-dirt;
#X obj 398 132 * 4000;
#X obj 422 -302 * 55;
#X obj 422 -272 + 10;
#X obj 398 156 + 7000;
#X obj 397 89 expr 1 - $f1;
#X obj 821 -165 tgl 15 0 \$0-open \$0-set-open open 17 7 0 10 -262144
-1 -1 1 1;
#X obj 717 -559 inlet;
#X obj 716 -537 s \$0-set-open;
#X obj 580 -293 r \$0-open;
#X obj 580 -249 + 14;
#X obj 476 -374 i;
#X obj 580 -227 t b i;
#X obj 580 -271 * 100;
#X obj 172 0 noise~;
#X obj 225 88 *~;
#X obj 172 24 *~ 0.2;
#X obj 265 -89 nbx 4 14 0.1 1000 1 1 empty empty attack 0 -8 0 10 -262144
-1 -1 1.55936 256 0;
#X text 314 -89 ms;
#X obj 298 -48 nbx 4 14 10 10000 1 1 empty empty decay 0 -8 0 10 -262144
-1 -1 118.331 256 0;
#X text 346 -51 ms;
#X obj 240 52 vline~;
#X obj 382 -298 + 0.1;
#X obj 237 216 bob~;
#X obj 237 238 -~;
#X obj 304 298 *~;
#X obj 304 349 /~;
#X obj 178 -407 unpack 0 100;
#X obj 248 -376 clip 0 127;
#X obj 248 -354 / 127;
#X obj 239 -164 f 1;
#X obj 240 -5 pack f f f;
#X msg 240 25 \$1 \$2 \, 0 \$3 \$2;
#X connect 0 0 51 0;
#X connect 1 0 55 0;
#X connect 5 0 6 0;
#X connect 6 0 47 0;
#X connect 7 0 19 0;
#X connect 8 0 27 0;
#X connect 9 0 14 0;
#X connect 10 0 50 1;
#X connect 10 0 51 1;
#X connect 11 0 9 0;
#X connect 12 0 36 0;
#X connect 13 0 30 0;
#X connect 14 0 10 0;
#X connect 15 0 5 0;
#X connect 16 0 13 0;
#X connect 17 0 52 0;
#X connect 20 0 21 0;
#X connect 22 0 25 0;
#X connect 23 0 24 0;
#X connect 26 0 29 0;
#X connect 27 0 28 0;
#X connect 28 0 44 0;
#X connect 29 0 48 1;
#X connect 30 0 26 0;
#X connect 32 0 33 0;
#X connect 34 0 38 0;
#X connect 35 0 37 0;
#X connect 36 0 8 0;
#X connect 37 0 36 0;
#X connect 37 1 28 1;
#X connect 38 0 35 0;
#X connect 39 0 41 0;
#X connect 40 0 48 0;
#X connect 40 0 49 1;
#X connect 41 0 40 0;
#X connect 42 0 56 1;
#X connect 44 0 56 2;
#X connect 46 0 40 1;
#X connect 47 0 42 0;
#X connect 48 0 49 0;
#X connect 49 0 50 0;
#X connect 50 0 0 0;
#X connect 51 0 18 0;
#X connect 52 0 1 0;
#X connect 52 1 53 0;
#X connect 53 0 54 0;
#X connect 54 0 55 1;
#X connect 55 0 56 0;
#X connect 56 0 57 0;
#X connect 57 0 46 0;
#X coords 0 -1 1 1 130 107 1 740 -251;
