#N canvas 113 329 450 300 10;
#X obj 116 201 line;
#X obj 116 178 pack f 4800;
#X obj 132 43 inlet;
#X obj 116 223 outlet;
#X obj 179 44 inlet;
#X obj 179 66 * \$2;
#X obj 116 107 random \$1;
#X connect 0 0 3 0;
#X connect 1 0 0 0;
#X connect 2 0 6 0;
#X connect 4 0 5 0;
#X connect 5 0 1 1;
#X connect 6 0 1 0;
