#N canvas 710 340 759 475 10;
#X obj 97 127 pack 0 0 0;
#X obj 55 1 random 16;
#X obj 104 95 +;
#X obj 119 2 random 16;
#X obj 188 2 random 16;
#X obj 79 -118 t b b b;
#X obj 65 40 t f f;
#X obj 72 -153 inlet;
#X obj 344 -147 inlet;
#X obj 344 -125 s \$0-depth;
#X obj 206 -116 r \$0-depth;
#X obj 400 -169 loadbang;
#X obj 380 -146 f \$2;
#X msg 99 203 \; \$4-hits \$1 \; \$4-length \$2 \; \$4-rotation \$3
;
#X obj 113 172 list append \$1;
#X obj 294 -80 r \$0-min-length;
#X obj 412 -145 inlet;
#X obj 448 -144 f \$3;
#X obj 412 -123 s \$0-min-length;
#X obj 117 53 +;
#X connect 0 0 14 0;
#X connect 1 0 6 0;
#X connect 2 0 0 1;
#X connect 3 0 19 0;
#X connect 4 0 0 2;
#X connect 5 0 1 0;
#X connect 5 1 3 0;
#X connect 5 2 4 0;
#X connect 6 0 0 0;
#X connect 6 1 2 0;
#X connect 7 0 5 0;
#X connect 8 0 9 0;
#X connect 10 0 1 1;
#X connect 10 0 3 1;
#X connect 10 0 4 1;
#X connect 11 0 12 0;
#X connect 11 0 17 0;
#X connect 12 0 9 0;
#X connect 14 0 13 0;
#X connect 15 0 19 1;
#X connect 16 0 18 0;
#X connect 17 0 18 0;
#X connect 19 0 2 1;
