#N canvas 1165 88 450 472 10;
#X floatatom 228 140 5 0 0 0 hits-varience bd-hits-varience -, f 5
;
#X floatatom 228 118 5 0 0 0 hits-center #1-hits-center -, f 5;
#X floatatom 228 140 5 0 0 0 hits-varience #1-hits-varience -, f 5
;
#X obj 138 169 random-from-center;
#X obj 138 38 inlet;
#X text 138 60 bang to generate new modulation;
#X text 89 8 takes one argument for voice name;
#X obj 138 197 s \$1-hits;
#X connect 0 0 3 2;
#X connect 1 0 3 1;
#X connect 3 0 7 0;
#X connect 4 0 3 0;
#X coords 0 -1 1 1 178 60 1 104 100;
