#N canvas 292 365 782 448 10;
#X obj 122 -3 random;
#X obj 122 19 -;
#X obj 205 -7 / 2;
#X obj 122 42 +;
#X obj 122 -134 inlet;
#X text 122 -112 bang for random mod;
#X obj 252 -134 inlet;
#X text 252 -112 center of modulation;
#X obj 382 -134 inlet;
#X text 382 -112 varience of modulation;
#X obj 122 104 outlet;
#X obj 122 64 i;
#X connect 0 0 1 0;
#X connect 1 0 3 0;
#X connect 2 0 1 1;
#X connect 3 0 11 0;
#X connect 4 0 0 0;
#X connect 6 0 3 1;
#X connect 8 0 2 0;
#X connect 8 0 0 1;
#X connect 11 0 10 0;
