#N canvas 23 148 935 828 10;
#X obj 311 77 *~;
#X obj 311 384 tanh~;
#X obj 277 -512 bng 60 250 50 0 play-drum empty empty 17 7 0 10 -262144
-1 -1;
#X floatatom 325 185 5 0 0 0 - - -, f 5;
#X floatatom 365 185 5 0 0 0 - - -, f 5;
#X obj 325 159 unpack;
#X obj 325 112 loadbang;
#X obj 311 212 bob~;
#X msg 325 136 300 2;
#X obj 311 357 *~ 2;
#X floatatom 829 -232 5 0 127 0 softness #0-set-softness #0-softness
, f 5;
#X floatatom 829 -212 5 0 127 0 dirt #0-set-dirt #0-dirt, f 5;
#X floatatom 829 -192 5 0 127 0 size #0-set-size #0-size, f 5;
#X obj 375 -355 / 127;
#X obj 375 -303 + 5;
#X obj 375 -333 * 25;
#X obj 658 -428 loadbang;
#X obj 415 -329 / 127;
#X obj 415 -351 r \$0-size;
#X obj 553 121 / 127;
#X obj 553 173 + 1.05;
#X obj 553 99 r \$0-dirt;
#X obj 480 -124 / 127;
#X obj 480 -101 * 8;
#X obj 480 -72 + 1.05;
#X obj 480 -146 r \$0-dirt;
#X obj 462 -41 *~;
#X obj 469 -309 / 127;
#X obj 469 -331 r \$0-size;
#X obj 406 16 / 127;
#X obj 385 159 + 78;
#X obj 415 -277 + 25;
#X obj 553 143 * 6;
#X obj 406 37 expr 1-$f1;
#X obj 375 -377 r \$0-softness;
#X obj 469 -20 r \$0-softness;
#X obj 461 85 / 127;
#N canvas 960 27 960 982 oscillator~ 0;
#X obj 455 743 osc~;
#X text 493 137 drum vibration - tone;
#X obj 250 299 inlet;
#X obj 346 874 outlet~;
#X obj 596 507 delay 50;
#X msg 651 532 100 100;
#X obj 651 489 delay 75;
#X obj 361 336 / 127;
#X obj 361 358 * 2500;
#X obj 361 388 + 2500;
#X obj 357 448 f 2500;
#X msg 596 550 65 75;
#X obj 536 487 delay 10;
#X msg 520 580 75 \$1;
#X obj 455 549 vline~;
#X obj 361 314 r \$0-softness;
#X obj 807 331 inlet~;
#X obj 474 632 *~;
#X msg 456 510 \$1 \, 400 10;
#X obj 536 509 f 15;
#X obj 512 733 osc~;
#X obj 512 670 +~;
#X obj 571 646 osc~ 5;
#X connect 0 0 3 0;
#X connect 2 0 10 0;
#X connect 2 0 12 0;
#X connect 4 0 11 0;
#X connect 4 0 6 0;
#X connect 5 0 0 0;
#X connect 5 0 20 0;
#X connect 6 0 5 0;
#X connect 7 0 8 0;
#X connect 8 0 9 0;
#X connect 9 0 10 1;
#X connect 10 0 18 0;
#X connect 11 0 14 0;
#X connect 12 0 4 0;
#X connect 12 0 19 0;
#X connect 13 0 14 0;
#X connect 14 0 17 0;
#X connect 15 0 7 0;
#X connect 16 0 17 1;
#X connect 17 0 0 0;
#X connect 17 0 21 0;
#X connect 18 0 14 0;
#X connect 19 0 13 0;
#X connect 20 0 3 0;
#X connect 21 0 20 0;
#X connect 22 0 21 1;
#X coords 0 0 1 1 97 21 0;
#X restore 251 -85 pd oscillator~;
#N canvas 960 27 960 982 transient~ 0;
#X text 387 202 transient - noise;
#X obj 344 585 *~;
#X obj 374 561 *~;
#X obj 374 539 *~;
#X obj 371 227 inlet;
#X obj 342 635 outlet~;
#X obj 341 204 noise~;
#X obj 499 224 inlet;
#X obj 584 224 inlet;
#X obj 373 498 vline~;
#X obj 407 633 outlet~;
#X msg 370 379 \$1 \$2 \, 0 \$3 \$2;
#X obj 371 322 pack 1 0 150;
#X connect 1 0 5 0;
#X connect 2 0 1 1;
#X connect 2 0 10 0;
#X connect 3 0 2 0;
#X connect 3 0 2 1;
#X connect 4 0 12 0;
#X connect 6 0 1 0;
#X connect 7 0 12 1;
#X connect 8 0 12 2;
#X connect 9 0 3 0;
#X connect 9 0 3 1;
#X connect 11 0 9 0;
#X connect 12 0 11 0;
#X coords 0 0 1 1 175 125 0;
#X restore 462 -185 pd transient~;
#X obj 243 -298 t b b b;
#X obj 293 -575 inlet;
#X obj 478 416 outlet~;
#X obj 579 -9 / 127;
#X obj 579 -31 r \$0-size;
#X obj 579 43 + 2;
#X msg 658 -406 \; \$0-set-softness 7 \; \$0-set-size 22 \; \$0-set-dirt
34;
#X obj 258 324 hip~ 400;
#X obj 501 85 / 127;
#X obj 502 152 + 1;
#X obj 463 119 f;
#X obj 579 65 t b a;
#X obj 423 -562 inlet;
#X obj 423 -540 s \$0-set-softness;
#X obj 533 -562 inlet;
#X obj 623 -562 inlet;
#X obj 622 -540 s \$0-set-size;
#X obj 533 -540 s \$0-set-dirt;
#X floatatom 483 -228 5 0 0 0 - - -, f 5;
#X floatatom 424 -241 5 0 0 0 - - -, f 5;
#X obj 469 -287 * 200;
#X obj 415 -307 * 300;
#X obj 455 152 + 0.5;
#X obj 579 13 * 0.25;
#X obj 337 -15 *~ 0.2;
#X obj 469 -257 + 90;
#X obj 385 135 * 1000;
#X obj 386 110 *;
#X obj 386 81 *;
#X obj 298 -546 unpack 0 100;
#X obj 348 -508 clip 0 127;
#X obj 348 -486 / 127;
#X obj 323 -262 f;
#X connect 0 0 7 0;
#X connect 1 0 41 0;
#X connect 2 0 39 0;
#X connect 3 0 7 1;
#X connect 4 0 7 2;
#X connect 5 0 3 0;
#X connect 5 1 4 0;
#X connect 6 0 8 0;
#X connect 7 0 46 0;
#X connect 8 0 5 0;
#X connect 9 0 1 0;
#X connect 13 0 15 0;
#X connect 14 0 38 1;
#X connect 15 0 14 0;
#X connect 16 0 45 0;
#X connect 17 0 60 0;
#X connect 18 0 17 0;
#X connect 19 0 32 0;
#X connect 20 0 9 1;
#X connect 21 0 19 0;
#X connect 22 0 23 0;
#X connect 23 0 24 0;
#X connect 24 0 26 1;
#X connect 25 0 22 0;
#X connect 26 0 37 1;
#X connect 26 0 63 0;
#X connect 27 0 59 0;
#X connect 28 0 27 0;
#X connect 29 0 33 0;
#X connect 30 0 3 0;
#X connect 31 0 58 0;
#X connect 32 0 20 0;
#X connect 33 0 67 0;
#X connect 33 0 67 1;
#X connect 34 0 13 0;
#X connect 35 0 29 0;
#X connect 35 0 36 0;
#X connect 35 0 47 0;
#X connect 36 0 49 0;
#X connect 37 0 0 0;
#X connect 38 0 26 0;
#X connect 38 1 0 1;
#X connect 39 1 71 0;
#X connect 39 2 37 0;
#X connect 40 0 68 0;
#X connect 42 0 62 0;
#X connect 43 0 42 0;
#X connect 44 0 50 0;
#X connect 46 0 9 0;
#X connect 47 0 48 0;
#X connect 49 0 61 0;
#X connect 50 0 49 0;
#X connect 50 1 61 1;
#X connect 51 0 52 0;
#X connect 53 0 56 0;
#X connect 54 0 55 0;
#X connect 59 0 64 0;
#X connect 60 0 31 0;
#X connect 61 0 4 0;
#X connect 62 0 44 0;
#X connect 63 0 0 1;
#X connect 64 0 57 0;
#X connect 64 0 38 2;
#X connect 65 0 30 0;
#X connect 66 0 65 0;
#X connect 67 0 66 0;
#X connect 67 0 66 1;
#X connect 68 0 2 0;
#X connect 68 1 69 0;
#X connect 69 0 70 0;
#X connect 70 0 71 1;
#X connect 71 0 38 0;
#X coords 0 -1 1 1 130 83 1 740 -251;
